<?xml version="1.0" encoding="utf-8"?>
<!-- Generator: Adobe Illustrator 21.0.0, SVG Export Plug-In . SVG Version: 6.00 Build 0)  -->
<svg version="1.1" xmlns="http://www.w3.org/2000/svg" xmlns:xlink="http://www.w3.org/1999/xlink" x="0px" y="0px"
	 viewBox="0 0 64 64" style="enable-background:new 0 0 64 64;" xml:space="preserve">
<style type="text/css">
	.st0{fill:#6E6E6E;}
	.st1{fill:#4D4D4D;}
	.st2{fill:#DDDDDD;}
	.st3{fill:#C7C6C6;}
	.st4{fill:#5D6A68;}
	.st5{fill:#45504E;}
</style>
<circle class="st0" cx="60.37" cy="13.434" r="1.062"/>
<circle class="st0" cx="12.052" cy="52.672" r="1.062"/>
<circle class="st0" cx="5.184" cy="16.513" r="1.062"/>
<g>
	<path class="st0" d="M11.622,0.16h-0.347c-0.237,0-0.43,0.192-0.43,0.43v4.276c0,0.237,0.192,0.43,0.43,0.43h0.347
		c0.237,0,0.43-0.192,0.43-0.43V0.589C12.052,0.352,11.86,0.16,11.622,0.16z"/>
	<path class="st0" d="M14.062,2.947V2.6c0-0.237-0.192-0.43-0.43-0.43H9.357c-0.237,0-0.43,0.192-0.43,0.43v0.347
		c0,0.237,0.192,0.43,0.43,0.43h4.276C13.87,3.377,14.062,3.184,14.062,2.947z"/>
</g>
<g>
	<path class="st0" d="M61.56,46.475h-0.347c-0.237,0-0.43,0.192-0.43,0.43v4.276c0,0.237,0.192,0.43,0.43,0.43h0.347
		c0.237,0,0.43-0.192,0.43-0.43v-4.276C61.99,46.667,61.797,46.475,61.56,46.475z"/>
	<path class="st0" d="M64,49.262v-0.347c0-0.237-0.192-0.43-0.43-0.43h-4.276c-0.237,0-0.43,0.192-0.43,0.43v0.347
		c0,0.237,0.192,0.43,0.43,0.43h4.276C63.808,49.692,64,49.499,64,49.262z"/>
</g>
<path class="st1" d="M2,43.903c-1.032,0-1.871-0.84-1.871-1.872c0-1.032,0.84-1.871,1.871-1.871s1.872,0.84,1.872,1.871
	C3.872,43.063,3.032,43.903,2,43.903z M2,41.213c-0.451,0-0.818,0.367-0.818,0.818c0,0.452,0.367,0.819,0.818,0.819
	c0.452,0,0.819-0.367,0.819-0.819C2.819,41.58,2.452,41.213,2,41.213z"/>
<path class="st1" d="M49.847,5.299c-1.032,0-1.871-0.84-1.871-1.872c0-1.032,0.84-1.871,1.871-1.871s1.872,0.84,1.872,1.871
	C51.719,4.46,50.878,5.299,49.847,5.299z M49.847,2.609c-0.451,0-0.818,0.367-0.818,0.818c0,0.452,0.367,0.819,0.818,0.819
	c0.452,0,0.819-0.367,0.819-0.819C50.666,2.976,50.299,2.609,49.847,2.609z"/>
<path class="st1" d="M28.632,63.087c-1.032,0-1.871-0.84-1.871-1.872c0-1.032,0.84-1.871,1.871-1.871s1.872,0.84,1.872,1.871
	C30.504,62.247,29.664,63.087,28.632,63.087z M28.632,60.396c-0.451,0-0.818,0.367-0.818,0.818c0,0.452,0.367,0.819,0.818,0.819
	c0.452,0,0.819-0.367,0.819-0.819C29.452,60.764,29.084,60.396,28.632,60.396z"/>
<g>
	<path class="st2" d="M31.849,50.092c-11.241,0-20.467-9.225-20.467-20.467S20.607,9.159,31.849,9.159s20.467,9.225,20.467,20.467
		S43.09,50.092,31.849,50.092z"/>
	<path class="st3" d="M52.315,29.625c0-11.241-9.225-20.467-20.467-20.467v40.933C43.09,50.092,52.315,40.867,52.315,29.625z"/>
	<g>
		<path class="st4" d="M31.849,47.693c-9.919,0-18.068-8.149-18.068-18.068s8.149-18.068,18.068-18.068s18.068,8.149,18.068,18.068
			S41.768,47.693,31.849,47.693z"/>
		<path class="st5" d="M49.917,29.625c0-9.919-8.149-18.068-18.068-18.068v36.136C41.768,47.693,49.917,39.545,49.917,29.625z"/>
	</g>
	<path class="st2" d="M23.191,42.466c-0.248,0-0.495-0.077-0.705-0.23c-0.377-0.273-0.561-0.741-0.472-1.198l1.718-8.841
		l-6.586-6.142c-0.341-0.319-0.467-0.805-0.323-1.247c0.144-0.444,0.532-0.764,0.994-0.82l8.939-1.098l3.806-8.163
		c0.394-0.843,1.78-0.846,2.174,0l3.807,8.163l8.939,1.098c0.463,0.056,0.85,0.376,0.994,0.82c0.144,0.443,0.018,0.929-0.323,1.247
		l-6.586,6.142l1.718,8.841c0.089,0.457-0.095,0.925-0.472,1.198c-0.378,0.274-0.88,0.305-1.286,0.08l-7.878-4.366l-7.877,4.366
		C23.59,42.417,23.39,42.466,23.191,42.466z"/>
	<path class="st3" d="M45.481,23.989l-8.939-1.098l-3.807-8.163c-0.166-0.356-0.517-0.528-0.887-0.584v23.918l7.678,4.255
		c0.406,0.225,0.908,0.194,1.286-0.08c0.377-0.273,0.561-0.741,0.472-1.198l-1.718-8.841l6.586-6.142
		c0.341-0.319,0.467-0.805,0.323-1.247C46.332,24.365,45.944,24.045,45.481,23.989z"/>
</g>
</svg>
