<svg width="20" height="20" viewBox="0 0 20 20" fill="none" xmlns="http://www.w3.org/2000/svg">
<path d="M12.86 14.1396L12.36 14.8596C12.17 15.1396 12.06 15.3096 11.88 15.5596C11.7217 15.814 11.5262 16.0432 11.3 16.2396C11.0652 16.404 10.7866 16.4945 10.5 16.4996C9.85 16.4996 9 15.5496 8.94 15.4996C8.88 15.4496 8.26 14.7096 8.09 14.4996L7.85 14.1596C3.64 14.3596 0.5 15.4496 0.5 16.7496C0.5 18.2696 4.75 19.4996 10 19.4996C15.25 19.4996 19.5 18.2696 19.5 16.7496C19.5 15.5196 16.7 14.4896 12.86 14.1396Z" stroke="white" stroke-miterlimit="10"/>
<path d="M10 8.5C11.3807 8.5 12.5 7.38071 12.5 6C12.5 4.61929 11.3807 3.5 10 3.5C8.61929 3.5 7.5 4.61929 7.5 6C7.5 7.38071 8.61929 8.5 10 8.5Z" stroke="white" stroke-miterlimit="10"/>
<path d="M15.5001 5.50003C15.9301 7.32003 15.1201 9.05003 13.5001 12.5C12.3701 14.91 11.6301 16.45 10.5001 16.5C10.2401 16.5 9.38011 16.5 7.50011 13.5C5.13011 9.76003 3.94011 7.88003 4.50011 5.50003C5.00011 3.33003 7.00011 0.510027 10.0001 0.500027C13.0001 0.490027 15.0001 3.28003 15.5001 5.50003Z" stroke="white" stroke-miterlimit="10"/>
</svg>
