<svg width="30" height="30" viewBox="0 0 30 30" fill="none" xmlns="http://www.w3.org/2000/svg">
<path d="M26.5 7H3.5C2.12 7 1 5.88 1 4.5C1 3.12 2.12 2 3.5 2H26.5C27.88 2 29 3.12 29 4.5C29 5.88 27.88 7 26.5 7Z" fill="#FFC700"/>
<path d="M26.5 17H9.5C8.12 17 7 15.88 7 14.5C7 13.12 8.12 12 9.5 12H26.5C27.88 12 29 13.12 29 14.5C29 15.88 27.88 17 26.5 17Z" fill="#FFC700"/>
<path d="M26.5 27H14.5C13.12 27 12 25.88 12 24.5C12 23.12 13.12 22 14.5 22H26.5C27.88 22 29 23.12 29 24.5C29 25.88 27.88 27 26.5 27Z" fill="#FFC700"/>
</svg>
