<svg width="123" height="47" viewBox="0 0 123 47" fill="none" xmlns="http://www.w3.org/2000/svg">
<path d="M23.64 43.6905C16.31 43.6905 8.97004 43.6905 1.64004 43.6905C3.96004 41.1505 6.29004 38.6105 8.61004 36.0705C6.21004 33.4605 3.82004 30.8405 1.42004 28.2305C8.90004 28.2305 16.38 28.2305 23.86 28.2305C23.79 33.3805 23.72 38.5405 23.64 43.6905Z" fill="#E6E6E6"/>
<path d="M98.36 43.6905C105.69 43.6905 113.03 43.6905 120.36 43.6905C118.04 41.1505 115.71 38.6105 113.39 36.0705C115.79 33.4605 118.18 30.8405 120.58 28.2305C113.1 28.2305 105.62 28.2305 98.14 28.2305C98.21 33.3805 98.28 38.5405 98.36 43.6905Z" fill="#E6E6E6"/>
<path d="M98.14 38.6797C98.21 40.3497 98.29 42.0197 98.36 43.6897C100.83 42.0197 103.3 40.3497 105.77 38.6797C103.22 38.6797 100.68 38.6797 98.14 38.6797Z" fill="#999999"/>
<path d="M23.64 38.6797C23.64 40.3497 23.64 42.0197 23.64 43.6897C21.17 42.0197 18.7 40.3497 16.23 38.6797C18.71 38.6797 21.18 38.6797 23.64 38.6797Z" fill="#999999"/>
<path d="M16.24 23C16.31 22.96 16.41 22.89 16.46 22.78C16.57 22.55 16.37 22.4 16.46 22.13C16.52 21.95 16.64 21.92 16.68 21.69C16.7 21.59 16.68 21.5 16.68 21.47C16.68 21.47 16.68 20.24 16.68 17.77C16.68 17.62 16.68 17.48 16.68 17.33C16.73 17.29 16.81 17.22 16.9 17.11C17.05 16.91 17.11 16.72 17.12 16.67C17.18 16.47 17.5 16.06 18.64 15.15C19 15.51 19.37 15.88 19.73 16.24C21.04 16.24 22.34 16.24 23.65 16.24C23.72 16.24 23.8 16.24 23.87 16.24C23.9 16.13 23.96 15.97 24.09 15.8C24.16 15.7 24.24 15.63 24.31 15.58C24.53 15.07 24.75 14.56 24.96 14.06C26.92 14.06 28.88 14.06 30.84 14.06C31.22 14.94 31.39 15.34 31.47 15.54C31.47 15.55 31.48 15.57 31.49 15.59C31.64 15.93 31.88 16.19 31.88 16.19C31.89 16.2 31.91 16.22 31.93 16.24C33.09 16.24 34.25 16.24 35.42 16.24C35.42 14.93 35.42 13.63 35.42 12.32C35.2 12.32 34.98 12.32 34.77 12.32C34.77 12.17 34.77 12.03 34.77 11.88C34.81 11.86 35.76 11.48 35.8 11.47L35.86 11.45C36.08 10.72 36.3 10 36.51 9.27C36.8 9.27 37.09 9.27 37.38 9.27C37.6 10 37.82 10.72 38.03 11.45C38.39 11.6 38.76 11.74 39.12 11.89C39.12 12.04 39.12 12.18 39.12 12.33C38.83 12.33 38.54 12.33 38.25 12.33C38.25 15.89 38.25 19.45 38.25 23C38.54 23 38.83 23 39.12 23C39.12 20.24 39.12 17.48 39.12 14.72C39.34 14.72 39.56 14.72 39.77 14.72C39.77 14.5 39.77 14.28 39.77 14.07C39.92 14.07 40.06 14.07 40.21 14.07C40.21 12.84 40.21 11.6 40.21 10.37C40.15 10.32 40.07 10.25 39.99 10.15C39.91 10.04 39.8 9.91 39.77 9.71C39.73 9.4 39.92 9.15 39.99 9.06C40.07 8.96 40.15 8.89 40.21 8.84C40.5 8.62 40.79 8.4 41.08 8.19C41.15 8.12 41.23 8.04 41.3 7.97C41.36 8.08 41.78 8.33 41.95 8.41C42.12 8.49 42.15 8.55 42.56 8.82C42.6 8.85 42.59 8.84 42.6 8.85C42.67 8.9 42.99 9.12 43.04 9.5C43.07 9.82 42.89 10.06 42.82 10.15C42.74 10.25 42.66 10.32 42.6 10.37C42.6 11.6 42.6 12.84 42.6 14.07C42.67 14.07 42.75 14.07 42.82 14.07C42.82 14.22 42.82 14.36 42.82 14.51C42.82 14.58 42.82 14.66 42.82 14.73C42.89 14.73 42.97 14.73 43.04 14.73C43.05 14.67 43.09 14.47 43.26 14.29C43.31 14.24 43.46 14.11 43.7 14.07C43.7 13.78 43.7 13.49 43.7 13.2C43.85 13.2 43.99 13.2 44.14 13.2C44.14 11.89 44.14 10.59 44.14 9.28C44.08 9.17 44 9.03 43.92 8.84C43.83 8.62 43.74 8.44 43.7 8.19C43.67 8.01 43.63 7.79 43.7 7.54C43.77 7.26 43.93 7.09 44.14 6.89C44.42 6.61 44.53 6.59 45.01 6.24C45.64 5.78 45.87 5.5 46.1 5.59C46.17 5.62 47.03 6.26 47.08 6.29C47.19 6.35 47.26 6.43 47.63 6.68C48.2 7.07 48.19 7.22 48.28 7.33C48.59 7.7 48.53 8.06 48.51 8.17C48.51 8.18 48.5 8.19 48.5 8.2C48.45 8.39 48.3 8.72 47.85 9.29C47.85 10.6 47.85 11.9 47.85 13.21C47.97 13.21 48.09 13.21 48.21 13.21C48.23 13.21 48.26 13.21 48.28 13.21C48.28 13.54 48.28 14.04 48.28 14.05V14.08C48.28 14.08 48.33 14.08 48.37 14.08C48.44 14.08 48.49 14.08 48.49 14.08C48.59 14.08 48.82 14.38 48.93 14.52C48.93 14.59 48.93 14.67 48.93 14.74C49 14.74 49.08 14.74 49.15 14.74C49.15 14.31 49.15 14.09 49.15 14.09C49.3 14.09 49.44 14.09 49.59 14.09C49.59 12.86 49.59 11.62 49.59 10.39C49.53 10.34 49.45 10.27 49.37 10.17C49.3 10.08 49.18 9.93 49.15 9.73C49.1 9.4 49.33 9.12 49.37 9.08C49.53 8.89 49.65 8.9 49.83 8.8C49.92 8.75 49.97 8.7 50.02 8.65C50.13 8.55 50.32 8.41 50.67 8.21C50.78 8.25 50.93 8.32 51.11 8.43C51.16 8.46 51.19 8.48 51.23 8.51C51.35 8.59 51.89 9 51.98 9.09C52.12 9.22 52.16 9.24 52.2 9.31C52.28 9.45 52.23 9.62 52.2 9.75C52.11 10.07 51.9 10.29 51.76 10.4C51.76 11.56 51.76 12.72 51.76 13.89C51.91 13.89 52.05 13.89 52.2 13.89C52.2 14.15 52.2 14.41 52.2 14.68C52.2 14.71 52.2 14.74 52.2 14.77C52.42 14.77 52.64 14.77 52.85 14.77C52.85 16.03 52.85 21.93 52.85 23.18V23.26C53.56 23.26 53.94 23.26 53.94 23.26C53.94 23.04 53.94 22.82 53.94 22.61C53.98 22.57 54.25 22.3 54.29 22.26L54.37 22.18C54.37 19.71 54.37 17.24 54.37 14.77C54.46 14.67 54.53 14.6 54.59 14.55C54.76 14.4 54.92 14.32 55.02 14.12C55.02 14.08 55.02 14.04 55.02 13.99C55.02 13.96 55.02 13.93 55.02 13.9C55.22 13.9 55.41 13.9 55.61 13.9C55.63 13.9 55.65 13.9 55.67 13.9C55.67 13.75 55.67 13.61 55.67 13.46C55.61 13.39 55.4 13.12 55.45 12.81C55.48 12.6 55.62 12.44 55.67 12.37C55.78 12.24 55.82 12.24 55.92 12.11C56.01 11.99 56.01 11.91 56.11 11.72C56.2 11.53 56.28 11.38 56.33 11.28C56.48 11.57 56.62 11.86 56.77 12.15C56.83 12.2 56.91 12.27 56.99 12.37C57.05 12.45 57.18 12.61 57.21 12.81C57.26 13.14 57.04 13.41 56.99 13.46C56.99 13.61 56.99 13.75 56.99 13.9C57.14 13.9 57.28 13.9 57.43 13.9C57.43 13.75 57.43 13.61 57.43 13.46C57.5 13.19 57.56 12.93 57.63 12.66C57.64 12.64 57.64 12.61 57.65 12.59C57.65 11.94 57.65 11.28 57.65 10.63C57.5 10.63 57.36 10.63 57.21 10.63C57.35 10.44 57.5 10.22 57.65 9.98C57.83 9.67 57.97 9.37 58.09 9.11C58.24 9.11 58.38 9.11 58.53 9.11C58.75 8.38 58.97 7.66 59.18 6.93C59.18 6.42 59.18 5.91 59.18 5.41C59.12 5.31 59.04 5.16 58.96 4.97C58.82 4.65 58.75 4.5 58.74 4.32C58.73 4.03 58.87 3.81 58.96 3.67C59.18 3.31 59.33 3.37 59.61 3.02C59.82 2.75 59.92 2.49 60.05 2.15C60.11 1.99 60.14 1.87 60.27 1.5C60.39 1.5 60.5 1.5 60.62 1.5C60.65 1.5 60.68 1.5 60.71 1.5C60.69 1.6 60.68 1.76 60.71 1.94C60.78 2.4 61.05 2.71 61.15 2.81C61.35 3.04 61.44 3.02 61.59 3.25C61.67 3.38 61.65 3.39 61.81 3.69C61.95 3.95 61.99 3.99 62.03 4.13C62.07 4.3 62.05 4.45 62.03 4.57C61.97 4.95 61.77 5.23 61.63 5.39C61.62 5.41 61.6 5.42 61.59 5.44C61.59 5.95 61.59 6.46 61.59 6.96C61.81 7.69 62.03 8.41 62.24 9.14C62.39 9.14 62.53 9.14 62.68 9.14C62.74 9.23 63.63 10.47 63.7 10.56L63.77 10.66C63.62 10.66 63.48 10.66 63.33 10.66C63.26 10.66 63.18 10.66 63.11 10.66C63.11 11.31 63.11 11.97 63.11 12.62C63.33 12.91 63.55 13.2 63.76 13.49C63.69 13.56 63.61 13.64 63.54 13.71C63.54 13.78 63.54 13.86 63.54 13.93C63.54 13.99 63.54 14.04 63.54 14.1C63.54 14.12 63.54 14.13 63.54 14.15C63.83 14.15 64.12 14.15 64.41 14.15C64.4 14.19 64.38 14.28 64.41 14.37C64.47 14.51 64.64 14.61 64.85 14.59C64.85 15.24 64.85 15.9 64.85 16.55C64.98 16.63 66.2 17.32 66.34 17.4L66.38 17.42C66.38 17.93 66.38 18.44 66.38 18.94C66.45 19.01 66.53 19.09 66.6 19.16C66.6 20.18 66.6 21.19 66.6 22.21C66.6 22.28 66.6 22.36 66.6 22.43C66.75 22.5 66.89 22.58 67.04 22.65C67.04 22.8 67.04 22.94 67.04 23.09C67.19 23.09 67.33 23.09 67.48 23.09C67.48 22.9 67.48 22.71 67.48 22.51C67.48 22.48 67.48 22.46 67.48 22.43C67.59 22.43 67.7 22.43 67.81 22.43C67.84 22.43 67.88 22.43 67.91 22.43C67.91 18.87 67.91 15.31 67.91 11.76C67.89 11.66 67.87 11.5 67.91 11.32C67.96 11.1 68.07 10.96 68.13 10.88C68.21 10.78 68.29 10.71 68.35 10.66C68.35 10.59 68.35 10.51 68.35 10.44C68.4 10.44 68.46 10.44 68.51 10.44C68.53 10.44 68.55 10.44 68.57 10.44C68.57 10.51 68.57 10.59 68.57 10.66C68.57 10.66 68.78 10.87 68.79 10.88L68.93 11.02C68.98 11.09 69 11.1 69.01 11.1C69.03 11.09 68.98 10.99 69.01 10.88C69.03 10.83 69.09 10.77 69.23 10.66C69.36 10.55 69.43 10.5 69.45 10.44C69.46 10.42 69.48 10.36 69.45 10.22C69.43 10.13 69.38 9.96 69.23 9.78C69.23 9.66 69.23 9.53 69.23 9.41C69.23 9.39 69.23 9.37 69.23 9.35C69.96 9.35 70.68 9.35 71.41 9.35C71.42 9.45 71.42 9.52 71.41 9.57C71.38 9.78 71.23 9.85 71.06 10.16C70.97 10.33 70.96 10.39 70.98 10.44C71.01 10.57 71.14 10.63 71.2 10.66C71.27 10.73 71.35 10.81 71.42 10.88C71.49 10.95 71.57 11.03 71.64 11.1C71.78 11.03 71.84 10.96 71.86 10.88C71.88 10.8 71.84 10.75 71.86 10.66C71.88 10.57 71.97 10.5 72.08 10.44C72.24 10.57 72.27 10.6 72.3 10.66C72.34 10.75 72.27 10.79 72.3 10.88C72.35 11.01 72.52 11.1 72.52 11.1C72.59 11.1 72.67 11.1 72.74 11.1L73.61 9.58C74.7 9.58 75.79 9.58 76.88 9.58C77.24 10.16 77.61 10.74 77.97 11.32C78.04 11.17 78.12 11.03 78.19 10.88L78.41 10.44C78.48 10.59 78.56 10.73 78.63 10.88C78.7 10.95 78.78 11.03 78.85 11.1C78.88 11.09 79.44 10.86 79.5 10.45C79.52 10.34 79.5 10.23 79.5 10.23C79.47 10 79.34 9.86 79.28 9.79C79.28 9.67 79.28 9.54 79.28 9.42C79.28 9.4 79.28 9.38 79.28 9.36C80.01 9.36 80.73 9.36 81.46 9.36C81.46 9.43 81.46 9.51 81.46 9.58C81.46 9.65 81.46 9.73 81.46 9.8C81.32 9.94 81.24 10.02 81.24 10.02C81.21 10.04 81.02 10.2 81.02 10.46C81.02 10.68 81.17 10.82 81.24 10.9C81.41 11.06 81.6 11.11 81.68 11.12C81.69 11.1 81.86 10.76 81.87 10.74L81.9 10.68C81.97 10.61 82.05 10.53 82.12 10.46C82.18 10.5 82.26 10.58 82.34 10.68C82.45 10.83 82.43 10.88 82.56 11.12C82.68 11.35 82.75 11.39 82.78 11.56C82.79 11.65 82.79 11.73 82.78 11.78C82.78 14.83 82.78 17.88 82.78 20.93C82.84 20.93 82.9 20.93 82.95 20.93C82.96 20.93 82.98 20.93 82.99 20.93C82.99 21.44 82.99 21.95 82.99 22.45C83.06 22.45 83.14 22.45 83.21 22.45C83.21 22.67 83.21 22.89 83.21 23.1C83.21 23.15 83.21 23.19 83.21 23.24C83.21 23.27 83.21 23.29 83.21 23.32C83.43 23.32 83.65 23.32 83.86 23.32C83.86 21.81 83.86 20.31 83.86 18.8C83.86 18.78 83.86 18.76 83.86 18.75C84.66 18.6 85.46 18.46 86.26 18.31C86.26 18.24 86.26 18.16 86.26 18.09C86.51 18.09 86.77 18.09 87.02 18.09C87.06 18.09 87.09 18.09 87.13 18.09C88.22 17.65 89.31 17.22 90.4 16.78C90.4 16.05 90.4 15.33 90.4 14.6C91.27 14.6 92.14 14.6 93.01 14.6C92.84 14.41 92.79 14.26 92.79 14.16C92.79 14.12 92.79 13.94 92.79 13.94C93.01 13.94 93.23 13.94 93.44 13.94C93.49 13.88 93.56 13.8 93.66 13.72C94.09 13.36 94.58 13.3 94.75 13.28C95.53 13.2 96.12 13.6 96.27 13.72C96.27 13.79 96.27 13.87 96.27 13.94C96.49 13.94 96.71 13.94 96.92 13.94C96.93 14 96.93 14.07 96.92 14.16C96.89 14.38 96.76 14.53 96.7 14.6C97.14 14.6 97.57 14.6 98.01 14.6C98.45 14.6 98.88 14.6 99.32 14.6C99.32 15.33 99.32 16.05 99.32 16.78L102.59 17.87H103.46C103.46 17.87 103.46 17.89 103.46 18.31C104.92 18.58 105.86 18.75 105.86 18.75V22.89L106.08 23.11C106.08 28.41 106.08 33.71 106.08 39.01C76.17 39.01 46.25 39.01 16.34 39.01C16.24 33.6 16.24 28.3 16.24 23Z" fill="white"/>
<path d="M89.1 42.3905C89.2823 42.3905 89.43 42.2427 89.43 42.0605C89.43 41.8782 89.2823 41.7305 89.1 41.7305C88.9178 41.7305 88.77 41.8782 88.77 42.0605C88.77 42.2427 88.9178 42.3905 89.1 42.3905Z" fill="white"/>
<path d="M97.0499 41.9502H89.4299V42.1702H97.0499V41.9502Z" fill="white"/>
<path d="M32.47 42.3905C32.6523 42.3905 32.8 42.2427 32.8 42.0605C32.8 41.8782 32.6523 41.7305 32.47 41.7305C32.2878 41.7305 32.14 41.8782 32.14 42.0605C32.14 42.2427 32.2878 42.3905 32.47 42.3905Z" fill="white"/>
<path d="M32.14 41.9502H24.52V42.1702H32.14V41.9502Z" fill="white"/>
<path d="M40.5232 42.3214C40.5504 42.3367 40.5708 42.3469 40.5844 42.352C40.6236 42.369 40.655 42.3903 40.6789 42.4158C40.6329 42.586 40.5214 42.7332 40.3445 42.8574C40.1675 42.9817 39.9437 43.0438 39.6731 43.0438C39.503 43.0438 39.3345 43.008 39.1677 42.9366C39.001 42.8651 38.8682 42.7706 38.7695 42.6532C38.6929 42.563 38.6351 42.4524 38.5959 42.3214C38.5585 42.1904 38.5398 42.0789 38.5398 41.987C38.5398 41.8764 38.5636 41.7513 38.6113 41.6118C38.6589 41.4705 38.7389 41.3378 38.8512 41.2136C38.9635 41.0893 39.1048 40.9906 39.2749 40.9175C39.4468 40.8443 39.64 40.8077 39.8544 40.8077C40.1488 40.8077 40.3538 40.8537 40.4695 40.9455C40.5853 41.0374 40.6431 41.1293 40.6431 41.2212C40.6431 41.3114 40.6193 41.3829 40.5716 41.4356C40.5257 41.4867 40.4619 41.5122 40.3802 41.5122C40.3104 41.5122 40.2458 41.4892 40.1862 41.4433C40.1283 41.3974 40.0799 41.3199 40.0407 41.211C40.0101 41.1327 39.9709 41.0757 39.9233 41.04C39.8756 41.006 39.8186 40.9889 39.7523 40.9889C39.5923 40.9889 39.4494 41.0579 39.3234 41.1957C39.1975 41.3318 39.1345 41.5182 39.1345 41.7547C39.1345 42.0389 39.2111 42.2652 39.3643 42.4337C39.5191 42.6005 39.6944 42.6839 39.8901 42.6839C39.9871 42.6839 40.0696 42.6728 40.1377 42.6507C40.1803 42.6354 40.2381 42.6022 40.3113 42.5511C40.33 42.5375 40.3649 42.5009 40.4159 42.4414C40.4687 42.3818 40.5044 42.3418 40.5232 42.3214ZM40.9086 40.92C40.9273 40.9132 40.9426 40.9081 40.9545 40.9047H41.7152L41.7714 40.9098L41.7739 41.0808L41.7688 41.331L41.7714 41.4612L41.7688 41.8466V42.1095C41.7688 42.2814 41.7782 42.4167 41.7969 42.5154C41.8224 42.5903 41.8633 42.6473 41.9194 42.6864C41.9773 42.7238 42.047 42.7426 42.1287 42.7426C42.2053 42.7426 42.2674 42.7349 42.3151 42.7196C42.3627 42.7043 42.4172 42.6753 42.4784 42.6328C42.5414 42.5903 42.5814 42.5596 42.5984 42.5409C42.6478 42.4865 42.6818 42.4363 42.7005 42.3903L42.7184 41.7547C42.7218 41.6883 42.7235 41.6339 42.7235 41.5913C42.7235 41.5471 42.7218 41.4918 42.7184 41.4254C42.7167 41.3574 42.7158 41.3191 42.7158 41.3106L42.7184 41.2161L42.7133 41.16C42.6724 41.1344 42.6154 41.1183 42.5422 41.1115L42.3712 41.0987C42.361 41.0936 42.3517 41.0876 42.3431 41.0808C42.3363 41.0468 42.3329 41.0213 42.3329 41.0043C42.3329 40.9838 42.3355 40.9549 42.3406 40.9175C42.3967 40.909 42.4452 40.9047 42.4861 40.9047L42.8792 40.9098C42.9847 40.9098 43.114 40.9081 43.2672 40.9047L43.2723 41.0961L43.2646 41.3412L43.2697 41.6475L43.2672 42.0866L43.2621 42.2831L43.2646 42.4158C43.2578 42.5043 43.2544 42.5545 43.2544 42.5664C43.2544 42.609 43.2621 42.6405 43.2774 42.6609C43.2927 42.6813 43.3072 42.6915 43.3208 42.6915L43.5556 42.6839L43.5863 42.689C43.5914 42.7485 43.5939 42.7826 43.5939 42.7911C43.5939 42.803 43.5914 42.8217 43.5863 42.8472C43.4961 42.8506 43.4314 42.8566 43.3923 42.8651C43.2102 42.9059 43.0111 42.9663 42.795 43.0463L42.6928 43.0412L42.6903 42.6251C42.6699 42.6422 42.6401 42.6685 42.601 42.7043C42.4512 42.837 42.3227 42.9272 42.2155 42.9749C42.1083 43.0208 41.996 43.0438 41.8786 43.0438C41.739 43.0438 41.6182 43.0148 41.5161 42.957C41.414 42.8991 41.3391 42.8277 41.2915 42.7426C41.2557 42.6762 41.2319 42.5809 41.22 42.4567C41.2166 42.4243 41.2149 42.2576 41.2149 41.9564L41.2175 41.8747C41.226 41.7079 41.2302 41.5845 41.2302 41.5046C41.2302 41.3684 41.2277 41.2774 41.2226 41.2314C41.2209 41.2093 41.2123 41.1838 41.197 41.1549C41.1732 41.1446 41.1451 41.137 41.1128 41.1319C41.0039 41.1132 40.9358 41.0953 40.9086 41.0783C40.9001 41.0732 40.8958 41.0621 40.8958 41.0451C40.8958 41.0349 40.8967 41.0213 40.8984 41.0043C40.9018 40.9872 40.9052 40.9592 40.9086 40.92ZM43.696 42.8753C43.7335 42.8498 43.7828 42.8336 43.8441 42.8268C43.9615 42.8132 44.0287 42.7953 44.0457 42.7732C44.0798 42.729 44.0968 42.6388 44.0968 42.5026V41.7828L44.0942 41.6118V41.0961L44.0866 40.5065V40.4044C44.0866 40.2649 44.0755 40.1619 44.0534 40.0955C43.9938 40.0598 43.93 40.0419 43.8619 40.0419C43.8211 40.0419 43.7828 40.0377 43.7471 40.0292C43.742 39.9866 43.7394 39.9551 43.7394 39.9347C43.7394 39.9211 43.7411 39.9058 43.7445 39.8888C43.879 39.8735 44.0185 39.8394 44.1631 39.7867C44.3078 39.7322 44.4184 39.6769 44.495 39.6208L44.5664 39.6182C44.5818 39.6182 44.6039 39.619 44.6328 39.6208C44.6413 40.2095 44.6456 40.6129 44.6456 40.8307C44.6456 40.8953 44.6447 40.9472 44.643 40.9864V41.0017L44.6456 41.0502V42.181L44.6481 42.5537V42.6149C44.6481 42.6881 44.66 42.74 44.6839 42.7706C44.7043 42.7928 44.7477 42.8064 44.8141 42.8115C44.8498 42.8149 44.9204 42.8234 45.0259 42.837C45.0344 42.8727 45.0387 42.9017 45.0387 42.9238C45.0387 42.9408 45.037 42.9646 45.0336 42.9953L44.8319 42.9851C44.7196 42.9766 44.5784 42.9723 44.4082 42.9723L44.3137 42.9697C44.2167 42.9697 44.0764 42.9774 43.8926 42.9927H43.7062L43.696 42.8753ZM45.1918 41.0528C45.3926 40.9677 45.5373 40.8843 45.6258 40.8026C45.716 40.7209 45.8121 40.5882 45.9142 40.4044H46.0572C46.0725 40.4486 46.0801 40.4954 46.0801 40.5448C46.0801 40.6333 46.0793 40.7022 46.0776 40.7515L46.0699 40.9021C46.0699 40.9107 46.0708 40.9302 46.0725 40.9609L46.1312 40.9634C46.1397 40.9634 46.2197 40.96 46.3711 40.9532C46.383 40.9532 46.4469 40.9515 46.5626 40.9481C46.5728 40.994 46.5779 41.0349 46.5779 41.0706C46.5779 41.1098 46.5719 41.1557 46.56 41.2085C46.5039 41.2153 46.4613 41.2187 46.4324 41.2187C46.4188 41.2187 46.3916 41.217 46.3507 41.2136H46.218L46.172 41.211L46.0495 41.2161L46.0444 42.1912C46.0427 42.3801 46.0461 42.4984 46.0546 42.546C46.0648 42.592 46.0852 42.6362 46.1159 42.6788C46.155 42.6975 46.1984 42.7068 46.2461 42.7068C46.292 42.7068 46.326 42.7026 46.3482 42.6941C46.3703 42.6856 46.4077 42.6609 46.4605 42.62C46.4707 42.6115 46.4868 42.5996 46.509 42.5843C46.5498 42.6166 46.583 42.649 46.6085 42.6813L46.6187 42.7119C46.5592 42.8055 46.4749 42.8796 46.366 42.934C46.2588 42.9868 46.1439 43.0131 46.0214 43.0131C45.8632 43.0131 45.7347 42.9629 45.636 42.8625C45.5373 42.7621 45.4879 42.6064 45.4879 42.3954L45.4981 41.9462V41.2187L45.419 41.2161L45.2352 41.2187L45.202 41.211C45.1918 41.1957 45.1867 41.1812 45.1867 41.1676C45.1867 41.1574 45.1884 41.1191 45.1918 41.0528ZM46.7949 40.92C46.8136 40.9132 46.8289 40.9081 46.8408 40.9047H47.6015L47.6576 40.9098L47.6602 41.0808L47.6551 41.331L47.6576 41.4612L47.6551 41.8466V42.1095C47.6551 42.2814 47.6644 42.4167 47.6832 42.5154C47.7087 42.5903 47.7495 42.6473 47.8057 42.6864C47.8635 42.7238 47.9333 42.7426 48.015 42.7426C48.0916 42.7426 48.1537 42.7349 48.2013 42.7196C48.249 42.7043 48.3034 42.6753 48.3647 42.6328C48.4277 42.5903 48.4677 42.5596 48.4847 42.5409C48.534 42.4865 48.5681 42.4363 48.5868 42.3903L48.6046 41.7547C48.608 41.6883 48.6097 41.6339 48.6097 41.5913C48.6097 41.5471 48.608 41.4918 48.6046 41.4254C48.6029 41.3574 48.6021 41.3191 48.6021 41.3106L48.6046 41.2161L48.5995 41.16C48.5587 41.1344 48.5017 41.1183 48.4285 41.1115L48.2575 41.0987C48.2473 41.0936 48.2379 41.0876 48.2294 41.0808C48.2226 41.0468 48.2192 41.0213 48.2192 41.0043C48.2192 40.9838 48.2218 40.9549 48.2269 40.9175C48.283 40.909 48.3315 40.9047 48.3724 40.9047L48.7655 40.9098C48.871 40.9098 49.0003 40.9081 49.1535 40.9047L49.1586 41.0961L49.1509 41.3412L49.156 41.6475L49.1535 42.0866L49.1483 42.2831L49.1509 42.4158C49.1441 42.5043 49.1407 42.5545 49.1407 42.5664C49.1407 42.609 49.1483 42.6405 49.1637 42.6609C49.179 42.6813 49.1934 42.6915 49.2071 42.6915L49.4419 42.6839L49.4725 42.689C49.4776 42.7485 49.4802 42.7826 49.4802 42.7911C49.4802 42.803 49.4776 42.8217 49.4725 42.8472C49.3823 42.8506 49.3177 42.8566 49.2785 42.8651C49.0964 42.9059 48.8973 42.9663 48.6812 43.0463L48.5791 43.0412L48.5766 42.6251C48.5561 42.6422 48.5264 42.6685 48.4872 42.7043C48.3375 42.837 48.209 42.9272 48.1018 42.9749C47.9946 43.0208 47.8823 43.0438 47.7648 43.0438C47.6253 43.0438 47.5045 43.0148 47.4024 42.957C47.3003 42.8991 47.2254 42.8277 47.1777 42.7426C47.142 42.6762 47.1182 42.5809 47.1063 42.4567C47.1029 42.4243 47.1012 42.2576 47.1012 41.9564L47.1037 41.8747C47.1122 41.7079 47.1165 41.5845 47.1165 41.5046C47.1165 41.3684 47.1139 41.2774 47.1088 41.2314C47.1071 41.2093 47.0986 41.1838 47.0833 41.1549C47.0595 41.1446 47.0314 41.137 46.9991 41.1319C46.8902 41.1132 46.8221 41.0953 46.7949 41.0783C46.7864 41.0732 46.7821 41.0621 46.7821 41.0451C46.7821 41.0349 46.7829 41.0213 46.7846 41.0043C46.7881 40.9872 46.7915 40.9592 46.7949 40.92ZM49.664 42.8625C49.6861 42.8438 49.715 42.8302 49.7508 42.8217C49.8375 42.803 49.9201 42.7689 49.9984 42.7196C50.0137 42.6788 50.0213 42.5409 50.0213 42.3061C50.0213 41.8755 50.012 41.5845 49.9933 41.4331C49.9898 41.4059 49.9762 41.382 49.9524 41.3616C49.9099 41.3395 49.852 41.3199 49.7788 41.3029C49.7448 41.2944 49.7244 41.2757 49.7176 41.2467L49.7099 41.1523C49.8358 41.1353 49.9499 41.0927 50.052 41.0247C50.1541 40.9549 50.2306 40.8843 50.2817 40.8128C50.3089 40.7737 50.3327 40.7439 50.3532 40.7235L50.5318 40.7158C50.5404 40.755 50.5446 40.7873 50.5446 40.8128C50.5446 40.8315 50.5438 40.8545 50.5421 40.8817C50.5404 40.9413 50.5395 40.9906 50.5395 41.0298C50.5395 41.0485 50.5404 41.1191 50.5421 41.2416C50.6118 41.1225 50.6629 41.0425 50.6952 41.0017C50.7105 40.983 50.7556 40.9413 50.8305 40.8766C50.8884 40.8341 50.9539 40.8128 51.027 40.8128C51.1172 40.8128 51.1955 40.8434 51.2619 40.9047C51.3283 40.966 51.3614 41.0366 51.3614 41.1166C51.3614 41.1965 51.3359 41.2689 51.2849 41.3335C51.2355 41.3965 51.1691 41.428 51.0858 41.428C51.0126 41.428 50.936 41.3974 50.856 41.3361C50.8084 41.2987 50.7701 41.2799 50.7412 41.2799L50.7233 41.2825C50.6876 41.2944 50.6552 41.3267 50.6263 41.3795C50.5786 41.4646 50.5548 41.5531 50.5548 41.645L50.5599 41.7139C50.5667 41.8398 50.5718 42.135 50.5752 42.5996C50.5803 42.6422 50.5965 42.6847 50.6237 42.7273C50.6544 42.7511 50.685 42.7681 50.7156 42.7783C50.748 42.7885 50.8033 42.797 50.8816 42.8038C50.9598 42.8106 51.0075 42.8217 51.0245 42.837C51.0415 42.8506 51.05 42.8736 51.05 42.9059C51.05 42.9247 51.0449 42.9493 51.0347 42.98H50.7948L50.3072 42.9544C50.1847 42.9544 50.0732 42.9595 49.9728 42.9697H49.9294C49.9175 42.9697 49.829 42.974 49.664 42.9825C49.6589 42.9553 49.6563 42.9349 49.6563 42.9212C49.6563 42.9076 49.6589 42.8881 49.664 42.8625ZM51.632 41.6347C51.6763 41.4901 51.7154 41.3939 51.7494 41.3463C51.8447 41.2068 51.946 41.0978 52.0532 41.0196C52.1621 40.9413 52.26 40.8894 52.3467 40.8639C52.4591 40.8315 52.5501 40.8154 52.6199 40.8154C52.7798 40.8154 52.9092 40.8281 53.0079 40.8537C53.1066 40.8775 53.1891 40.9124 53.2555 40.9583C53.3508 41.0247 53.4273 41.0919 53.4852 41.16C53.5431 41.228 53.5898 41.308 53.6256 41.3999C53.663 41.4918 53.6834 41.6033 53.6868 41.7343L53.4035 41.7292C53.3252 41.7292 53.1534 41.7215 52.8879 41.7062C52.7892 41.6994 52.7211 41.696 52.6837 41.696C52.6718 41.696 52.5799 41.6969 52.408 41.6986H52.1885C52.1851 41.7224 52.1834 41.7428 52.1834 41.7598C52.1834 41.85 52.1944 41.9453 52.2166 42.0457C52.2387 42.1444 52.2719 42.232 52.3161 42.3086C52.3604 42.3835 52.4148 42.4482 52.4795 42.5026C52.5458 42.5571 52.6139 42.5962 52.6837 42.62L52.8317 42.6685C52.9628 42.6685 53.0504 42.6643 53.0946 42.6558C53.1763 42.6388 53.2478 42.6175 53.3091 42.592C53.372 42.5647 53.4478 42.5196 53.5362 42.4567C53.5975 42.5009 53.6486 42.5409 53.6894 42.5766C53.5396 42.7417 53.3839 42.8617 53.2223 42.9366C53.0623 43.0097 52.8828 43.0463 52.6837 43.0463C52.5492 43.0463 52.4395 43.0344 52.3544 43.0106C52.2404 42.98 52.1374 42.9332 52.0455 42.8702C51.9536 42.8072 51.8745 42.729 51.8081 42.6354C51.7418 42.5418 51.6924 42.4456 51.6601 42.3469C51.6175 42.2176 51.5963 42.1138 51.5963 42.0355C51.5963 41.8874 51.6082 41.7539 51.632 41.6347ZM53.1151 41.525C53.1134 41.4297 53.0946 41.3386 53.0589 41.2519C53.0232 41.1651 52.9679 41.0978 52.893 41.0502C52.8181 41.0008 52.7424 40.9762 52.6658 40.9762C52.5518 40.9762 52.4488 41.0264 52.3569 41.1268C52.2651 41.2272 52.2132 41.3633 52.2012 41.5352L52.7832 41.5377C52.8207 41.5377 52.8734 41.5352 52.9415 41.5301C52.9908 41.525 53.0257 41.5224 53.0461 41.5224C53.0615 41.5224 53.0844 41.5233 53.1151 41.525ZM55.2899 42.8191C55.3035 42.8123 55.3222 42.8081 55.346 42.8064C55.4464 42.7996 55.5264 42.7817 55.586 42.7528C55.5979 42.7477 55.6047 42.7366 55.6064 42.7196C55.6098 42.7026 55.6149 42.5477 55.6217 42.255V42.107L55.6243 41.8441L55.6217 41.5709V41.5097C55.6217 41.4297 55.603 41.371 55.5656 41.3335C55.5298 41.2944 55.4345 41.2527 55.2797 41.2085V41.1038C55.312 41.0953 55.3503 41.0859 55.3945 41.0757C55.5511 41.0434 55.6804 40.9974 55.7825 40.9379C55.8608 40.8919 55.9382 40.823 56.0148 40.7311H56.1552V40.772L56.1629 40.9762L56.1603 41.0706L56.1654 41.1166C56.3271 40.9889 56.4615 40.9047 56.5687 40.8639C56.6776 40.823 56.8019 40.8026 56.9414 40.8026C57.0758 40.8026 57.2052 40.8315 57.3294 40.8894C57.4553 40.9472 57.56 41.0442 57.6434 41.1804C57.7642 41.063 57.8654 40.9804 57.9471 40.9328C58.0033 40.9004 58.0799 40.8724 58.1768 40.8485C58.2755 40.823 58.3683 40.8103 58.4551 40.8103C58.6916 40.8103 58.8788 40.8817 59.0167 41.0247C59.1545 41.1693 59.2234 41.365 59.2234 41.6118V42.0176C59.2234 42.101 59.2209 42.2448 59.2158 42.449V42.6456C59.2158 42.6796 59.226 42.7128 59.2464 42.7451C59.3128 42.774 59.3698 42.7928 59.4174 42.8013C59.4514 42.8064 59.4838 42.8183 59.5144 42.837C59.5178 42.8676 59.5221 42.8932 59.5272 42.9136L59.5246 42.9646C59.477 42.9731 59.4429 42.9774 59.4225 42.9774C59.4089 42.9774 59.3672 42.974 59.2974 42.9672C59.2294 42.9587 59.1426 42.9544 59.0371 42.9544C58.7801 42.9544 58.5759 42.9629 58.4245 42.98C58.4125 42.9374 58.4066 42.9034 58.4066 42.8779L58.4091 42.8421C58.4313 42.8302 58.5044 42.8004 58.6287 42.7528C58.6508 42.7307 58.6635 42.7111 58.6669 42.6941C58.6755 42.6515 58.6797 42.5605 58.6797 42.4209L58.6669 41.7011C58.6652 41.5803 58.6559 41.4807 58.6389 41.4025C58.6219 41.3225 58.5963 41.2604 58.5623 41.2161C58.53 41.1702 58.4857 41.1327 58.4296 41.1038C58.3734 41.0749 58.3147 41.0604 58.2534 41.0604C58.1581 41.0604 58.0611 41.0876 57.9624 41.1421C57.8637 41.1948 57.7761 41.2757 57.6995 41.3846L57.697 41.4586L57.7021 41.7853L57.697 42.0534V42.3086L57.6944 42.5358C57.6944 42.6481 57.7055 42.7145 57.7276 42.7349C57.7616 42.7672 57.845 42.7902 57.9777 42.8038L58.0569 42.8319C58.0705 42.871 58.0773 42.9017 58.0773 42.9238C58.0773 42.9357 58.0739 42.9561 58.0671 42.9851L57.9931 42.9825H57.891L57.8374 42.98C57.7165 42.968 57.5915 42.9612 57.4621 42.9595L57.189 42.9544C57.1226 42.9544 57.0078 42.9621 56.8444 42.9774L56.7985 42.9697L56.7959 42.8191C56.847 42.8038 56.9388 42.7911 57.0716 42.7809C57.0801 42.7792 57.0911 42.7757 57.1048 42.7706C57.1235 42.7485 57.1345 42.7298 57.1379 42.7145C57.1465 42.6805 57.1507 42.6115 57.1507 42.5077L57.1482 41.9896L57.1533 41.8517C57.1533 41.5862 57.1439 41.422 57.1252 41.3591C57.1014 41.2774 57.0512 41.211 56.9746 41.16C56.8997 41.1072 56.8095 41.0808 56.704 41.0808C56.5662 41.0808 56.4462 41.114 56.3441 41.1804C56.242 41.245 56.1833 41.3029 56.168 41.354C56.1663 41.3744 56.1654 41.3897 56.1654 41.3999L56.168 41.4254V41.451C56.168 41.4663 56.1637 41.4901 56.1552 41.5224L56.1629 42.255L56.1654 42.6379C56.1654 42.6515 56.1671 42.6736 56.1705 42.7043L56.1833 42.7426C56.2309 42.7579 56.2718 42.7689 56.3058 42.7757C56.3688 42.7894 56.4164 42.8047 56.4487 42.8217C56.4539 42.8506 56.4564 42.871 56.4564 42.883C56.4564 42.9051 56.4496 42.9366 56.436 42.9774C56.4088 42.9791 56.3892 42.98 56.3773 42.98C56.3586 42.98 56.2735 42.9723 56.122 42.957L55.8438 42.9544C55.711 42.9544 55.5502 42.9638 55.3613 42.9825L55.2873 42.98C55.2839 42.9527 55.2805 42.9212 55.2771 42.8855C55.2771 42.8702 55.2814 42.8481 55.2899 42.8191ZM61.7913 41.1268C61.9002 41.2323 61.9811 41.354 62.0338 41.4918C62.0883 41.6279 62.1155 41.7564 62.1155 41.8772C62.1155 42.1053 62.0806 42.2891 62.0108 42.4286C61.9053 42.6396 61.7632 42.7953 61.5846 42.8957C61.4059 42.9961 61.1983 43.0463 60.9617 43.0463C60.6963 43.0463 60.4708 42.9868 60.2853 42.8676C60.1015 42.7485 59.9696 42.6132 59.8896 42.4618C59.8114 42.3103 59.7722 42.1223 59.7722 41.8977C59.7722 41.7836 59.7909 41.6696 59.8284 41.5556C59.8658 41.4399 59.9169 41.3395 59.9815 41.2544C60.0479 41.1693 60.1202 41.0978 60.1985 41.04C60.3125 40.9583 60.4265 40.9004 60.5405 40.8664C60.6563 40.8307 60.7958 40.8128 60.9592 40.8128C61.3148 40.8128 61.5922 40.9175 61.7913 41.1268ZM60.395 42.01C60.4104 42.221 60.4214 42.3427 60.4282 42.375C60.4504 42.489 60.4852 42.5869 60.5329 42.6685C60.5652 42.7213 60.6188 42.7681 60.6937 42.8089C60.7686 42.8498 60.8579 42.8702 60.9617 42.8702C61.0859 42.8702 61.1906 42.8311 61.2757 42.7528C61.3608 42.6728 61.422 42.5486 61.4595 42.3801C61.4833 42.2695 61.4952 42.0883 61.4952 41.8364C61.4952 41.5267 61.4442 41.308 61.3421 41.1804C61.24 41.0511 61.1055 40.9864 60.9387 40.9864C60.8077 40.9864 60.6988 41.023 60.612 41.0961C60.5269 41.1693 60.4674 41.2774 60.4333 41.4203C60.4112 41.5122 60.3985 41.7088 60.395 42.01ZM62.4116 42.8574C62.4558 42.837 62.4967 42.8234 62.5341 42.8166C62.6277 42.8013 62.6822 42.7885 62.6975 42.7783C62.723 42.763 62.74 42.7443 62.7485 42.7221C62.7587 42.6881 62.7638 42.6132 62.7638 42.4975V42.2754L62.7664 42.0942L62.7587 41.8262V41.6654C62.7587 41.5582 62.7502 41.4705 62.7332 41.4025C62.7264 41.3769 62.7051 41.3514 62.6694 41.3259C62.6218 41.2918 62.5409 41.2587 62.4269 41.2263L62.4244 41.1038C62.4465 41.097 62.466 41.0927 62.4831 41.091C62.5018 41.0876 62.5707 41.0706 62.6898 41.04C62.7834 41.006 62.8438 40.9821 62.8711 40.9685C62.8796 40.9634 62.8932 40.9558 62.9119 40.9455C62.9323 40.9285 62.9553 40.9115 62.9808 40.8945C63.0319 40.8588 63.0931 40.7966 63.1646 40.7082L63.2999 40.6979L63.2948 40.9864C63.2931 41.0153 63.2922 41.0383 63.2922 41.0553C63.2922 41.0689 63.2931 41.1081 63.2948 41.1727C63.436 41.0502 63.5645 40.9651 63.6802 40.9175C63.8317 40.8545 63.9755 40.823 64.1116 40.823C64.2716 40.823 64.412 40.863 64.5328 40.943C64.6536 41.0213 64.7327 41.1123 64.7702 41.2161C64.8076 41.3199 64.8263 41.5292 64.8263 41.8441L64.8161 42.6762C64.8161 42.7153 64.8229 42.7477 64.8366 42.7732C64.8536 42.7868 64.9004 42.7996 64.9769 42.8115L65.102 42.8345C65.1173 42.8566 65.125 42.8838 65.125 42.9161C65.125 42.9366 65.1241 42.9646 65.1224 43.0004L64.6221 42.9646L64.4741 42.9697H64.3567L64.0197 42.9953H63.9329C63.9312 42.9731 63.9304 42.9561 63.9304 42.9442C63.9304 42.9136 63.9321 42.8804 63.9355 42.8447C63.9593 42.8396 64.0189 42.8311 64.1142 42.8191C64.1397 42.8157 64.1678 42.8098 64.1984 42.8013C64.2324 42.7877 64.252 42.774 64.2571 42.7604C64.2707 42.7315 64.2775 42.6762 64.2775 42.5945C64.2775 42.4516 64.2758 42.3418 64.2724 42.2652L64.275 41.9691C64.2767 41.6101 64.2546 41.3863 64.2086 41.2978C64.1439 41.1702 64.047 41.1064 63.9176 41.1064C63.8223 41.1064 63.7236 41.131 63.6215 41.1804C63.5194 41.228 63.4139 41.3012 63.305 41.3999L63.2999 41.4433L63.305 41.6041L63.3024 41.7751L63.3127 42.1835L63.3076 42.2474C63.3076 42.5247 63.3186 42.6813 63.3407 42.717C63.3629 42.7528 63.4471 42.7919 63.5934 42.8345C63.5985 42.8634 63.6011 42.8847 63.6011 42.8983C63.6011 42.9187 63.5951 42.9502 63.5832 42.9927C63.5305 42.9944 63.4862 42.9953 63.4505 42.9953C63.4148 42.9953 63.3586 42.9902 63.282 42.98L63.0089 42.9749C62.8728 42.9749 62.6762 42.9808 62.4193 42.9927C62.4124 42.9757 62.409 42.9578 62.409 42.9391C62.409 42.9255 62.4099 42.8983 62.4116 42.8574ZM65.2654 40.92C65.2841 40.9132 65.2994 40.9081 65.3113 40.9047H66.072L66.1282 40.9098L66.1307 41.0808L66.1256 41.331L66.1282 41.4612L66.1256 41.8466V42.1095C66.1256 42.2814 66.135 42.4167 66.1537 42.5154C66.1792 42.5903 66.2201 42.6473 66.2762 42.6864C66.3341 42.7238 66.4038 42.7426 66.4855 42.7426C66.5621 42.7426 66.6242 42.7349 66.6719 42.7196C66.7195 42.7043 66.774 42.6753 66.8352 42.6328C66.8982 42.5903 66.9382 42.5596 66.9552 42.5409C67.0045 42.4865 67.0386 42.4363 67.0573 42.3903L67.0752 41.7547C67.0786 41.6883 67.0803 41.6339 67.0803 41.5913C67.0803 41.5471 67.0786 41.4918 67.0752 41.4254C67.0735 41.3574 67.0726 41.3191 67.0726 41.3106L67.0752 41.2161L67.0701 41.16C67.0292 41.1344 66.9722 41.1183 66.899 41.1115L66.728 41.0987C66.7178 41.0936 66.7084 41.0876 66.6999 41.0808C66.6931 41.0468 66.6897 41.0213 66.6897 41.0043C66.6897 40.9838 66.6923 40.9549 66.6974 40.9175C66.7535 40.909 66.802 40.9047 66.8429 40.9047L67.236 40.9098C67.3415 40.9098 67.4708 40.9081 67.624 40.9047L67.6291 41.0961L67.6214 41.3412L67.6265 41.6475L67.624 42.0866L67.6189 42.2831L67.6214 42.4158C67.6146 42.5043 67.6112 42.5545 67.6112 42.5664C67.6112 42.609 67.6189 42.6405 67.6342 42.6609C67.6495 42.6813 67.664 42.6915 67.6776 42.6915L67.9124 42.6839L67.9431 42.689C67.9482 42.7485 67.9507 42.7826 67.9507 42.7911C67.9507 42.803 67.9482 42.8217 67.9431 42.8472C67.8529 42.8506 67.7882 42.8566 67.7491 42.8651C67.567 42.9059 67.3679 42.9663 67.1517 43.0463L67.0496 43.0412L67.0471 42.6251C67.0267 42.6422 66.9969 42.6685 66.9578 42.7043C66.808 42.837 66.6795 42.9272 66.5723 42.9749C66.4651 43.0208 66.3528 43.0438 66.2354 43.0438C66.0958 43.0438 65.975 43.0148 65.8729 42.957C65.7708 42.8991 65.6959 42.8277 65.6483 42.7426C65.6125 42.6762 65.5887 42.5809 65.5768 42.4567C65.5734 42.4243 65.5717 42.2576 65.5717 41.9564L65.5742 41.8747C65.5828 41.7079 65.587 41.5845 65.587 41.5046C65.587 41.3684 65.5845 41.2774 65.5794 41.2314C65.5777 41.2093 65.5691 41.1838 65.5538 41.1549C65.53 41.1446 65.5019 41.137 65.4696 41.1319C65.3607 41.1132 65.2926 41.0953 65.2654 41.0783C65.2569 41.0732 65.2526 41.0621 65.2526 41.0451C65.2526 41.0349 65.2535 41.0213 65.2552 41.0043C65.2586 40.9872 65.262 40.9592 65.2654 40.92ZM68.1549 42.8191C68.1685 42.8123 68.1872 42.8081 68.2111 42.8064C68.3115 42.7996 68.3915 42.7817 68.451 42.7528C68.4629 42.7477 68.4697 42.7366 68.4714 42.7196C68.4748 42.7026 68.4799 42.5477 68.4868 42.255V42.107L68.4893 41.8441L68.4868 41.5709V41.5097C68.4868 41.4297 68.468 41.371 68.4306 41.3335C68.3949 41.2944 68.2996 41.2527 68.1447 41.2085V41.1038C68.177 41.0953 68.2153 41.0859 68.2596 41.0757C68.4161 41.0434 68.5455 40.9974 68.6476 40.9379C68.7258 40.8919 68.8033 40.823 68.8798 40.7311H69.0202V40.772L69.0279 40.9762L69.0253 41.0706L69.0305 41.1166C69.1921 40.9889 69.3266 40.9047 69.4338 40.8639C69.5427 40.823 69.6669 40.8026 69.8064 40.8026C69.9409 40.8026 70.0702 40.8315 70.1944 40.8894C70.3204 40.9472 70.425 41.0442 70.5084 41.1804C70.6292 41.063 70.7305 40.9804 70.8122 40.9328C70.8683 40.9004 70.9449 40.8724 71.0419 40.8485C71.1406 40.823 71.2333 40.8103 71.3201 40.8103C71.5567 40.8103 71.7439 40.8817 71.8817 41.0247C72.0195 41.1693 72.0885 41.365 72.0885 41.6118V42.0176C72.0885 42.101 72.0859 42.2448 72.0808 42.449V42.6456C72.0808 42.6796 72.091 42.7128 72.1114 42.7451C72.1778 42.774 72.2348 42.7928 72.2824 42.8013C72.3165 42.8064 72.3488 42.8183 72.3794 42.837C72.3829 42.8676 72.3871 42.8932 72.3922 42.9136L72.3897 42.9646C72.342 42.9731 72.308 42.9774 72.2876 42.9774C72.2739 42.9774 72.2322 42.974 72.1625 42.9672C72.0944 42.9587 72.0076 42.9544 71.9021 42.9544C71.6452 42.9544 71.4409 42.9629 71.2895 42.98C71.2776 42.9374 71.2716 42.9034 71.2716 42.8779L71.2742 42.8421C71.2963 42.8302 71.3695 42.8004 71.4937 42.7528C71.5158 42.7307 71.5286 42.7111 71.532 42.6941C71.5405 42.6515 71.5448 42.5605 71.5448 42.4209L71.532 41.7011C71.5303 41.5803 71.5209 41.4807 71.5039 41.4025C71.4869 41.3225 71.4614 41.2604 71.4273 41.2161C71.395 41.1702 71.3508 41.1327 71.2946 41.1038C71.2384 41.0749 71.1797 41.0604 71.1185 41.0604C71.0232 41.0604 70.9262 41.0876 70.8275 41.1421C70.7288 41.1948 70.6411 41.2757 70.5646 41.3846L70.562 41.4586L70.5671 41.7853L70.562 42.0534V42.3086L70.5595 42.5358C70.5595 42.6481 70.5705 42.7145 70.5926 42.7349C70.6267 42.7672 70.7101 42.7902 70.8428 42.8038L70.9219 42.8319C70.9355 42.871 70.9423 42.9017 70.9423 42.9238C70.9423 42.9357 70.9389 42.9561 70.9321 42.9851L70.8581 42.9825H70.756L70.7024 42.98C70.5816 42.968 70.4565 42.9612 70.3272 42.9595L70.054 42.9544C69.9877 42.9544 69.8728 42.9621 69.7094 42.9774L69.6635 42.9697L69.6609 42.8191C69.712 42.8038 69.8039 42.7911 69.9366 42.7809C69.9451 42.7792 69.9562 42.7757 69.9698 42.7706C69.9885 42.7485 69.9996 42.7298 70.003 42.7145C70.0115 42.6805 70.0158 42.6115 70.0158 42.5077L70.0132 41.9896L70.0183 41.8517C70.0183 41.5862 70.0089 41.422 69.9902 41.3591C69.9664 41.2774 69.9162 41.211 69.8396 41.16C69.7647 41.1072 69.6746 41.0808 69.569 41.0808C69.4312 41.0808 69.3112 41.114 69.2091 41.1804C69.107 41.245 69.0483 41.3029 69.033 41.354C69.0313 41.3744 69.0305 41.3897 69.0305 41.3999L69.033 41.4254V41.451C69.033 41.4663 69.0288 41.4901 69.0202 41.5224L69.0279 42.255L69.0305 42.6379C69.0305 42.6515 69.0322 42.6736 69.0356 42.7043L69.0483 42.7426C69.096 42.7579 69.1368 42.7689 69.1708 42.7757C69.2338 42.7894 69.2815 42.8047 69.3138 42.8217C69.3189 42.8506 69.3214 42.871 69.3214 42.883C69.3214 42.9051 69.3146 42.9366 69.301 42.9774C69.2738 42.9791 69.2542 42.98 69.2423 42.98C69.2236 42.98 69.1385 42.9723 68.9871 42.957L68.7088 42.9544C68.5761 42.9544 68.4153 42.9638 68.2264 42.9825L68.1524 42.98C68.149 42.9527 68.1456 42.9212 68.1422 42.8855C68.1422 42.8702 68.1464 42.8481 68.1549 42.8191ZM72.6653 41.6347C72.7096 41.4901 72.7487 41.3939 72.7828 41.3463C72.8781 41.2068 72.9793 41.0978 73.0865 41.0196C73.1954 40.9413 73.2933 40.8894 73.3801 40.8639C73.4924 40.8315 73.5834 40.8154 73.6532 40.8154C73.8132 40.8154 73.9425 40.8281 74.0412 40.8537C74.1399 40.8775 74.2224 40.9124 74.2888 40.9583C74.3841 41.0247 74.4607 41.0919 74.5185 41.16C74.5764 41.228 74.6232 41.308 74.6589 41.3999C74.6963 41.4918 74.7168 41.6033 74.7202 41.7343L74.4368 41.7292C74.3586 41.7292 74.1867 41.7215 73.9212 41.7062C73.8225 41.6994 73.7544 41.696 73.717 41.696C73.7051 41.696 73.6132 41.6969 73.4413 41.6986H73.2218C73.2184 41.7224 73.2167 41.7428 73.2167 41.7598C73.2167 41.85 73.2278 41.9453 73.2499 42.0457C73.272 42.1444 73.3052 42.232 73.3494 42.3086C73.3937 42.3835 73.4481 42.4482 73.5128 42.5026C73.5792 42.5571 73.6472 42.5962 73.717 42.62L73.8651 42.6685C73.9961 42.6685 74.0837 42.6643 74.128 42.6558C74.2097 42.6388 74.2811 42.6175 74.3424 42.592C74.4054 42.5647 74.4811 42.5196 74.5696 42.4567C74.6308 42.5009 74.6819 42.5409 74.7227 42.5766C74.573 42.7417 74.4173 42.8617 74.2556 42.9366C74.0956 43.0097 73.9161 43.0463 73.717 43.0463C73.5826 43.0463 73.4728 43.0344 73.3877 43.0106C73.2737 42.98 73.1708 42.9332 73.0789 42.8702C72.987 42.8072 72.9078 42.729 72.8415 42.6354C72.7751 42.5418 72.7257 42.4456 72.6934 42.3469C72.6509 42.2176 72.6296 42.1138 72.6296 42.0355C72.6296 41.8874 72.6415 41.7539 72.6653 41.6347ZM74.1484 41.525C74.1467 41.4297 74.128 41.3386 74.0922 41.2519C74.0565 41.1651 74.0012 41.0978 73.9263 41.0502C73.8514 41.0008 73.7757 40.9762 73.6991 40.9762C73.5851 40.9762 73.4822 41.0264 73.3903 41.1268C73.2984 41.2272 73.2465 41.3633 73.2346 41.5352L73.8166 41.5377C73.854 41.5377 73.9067 41.5352 73.9748 41.5301C74.0242 41.525 74.0591 41.5224 74.0795 41.5224C74.0948 41.5224 74.1178 41.5233 74.1484 41.525ZM75.001 42.8574C75.0452 42.837 75.086 42.8234 75.1235 42.8166C75.2171 42.8013 75.2715 42.7885 75.2868 42.7783C75.3124 42.763 75.3294 42.7443 75.3379 42.7221C75.3481 42.6881 75.3532 42.6132 75.3532 42.4975V42.2754L75.3558 42.0942L75.3481 41.8262V41.6654C75.3481 41.5582 75.3396 41.4705 75.3226 41.4025C75.3158 41.3769 75.2945 41.3514 75.2588 41.3259C75.2111 41.2918 75.1303 41.2587 75.0163 41.2263L75.0137 41.1038C75.0358 41.097 75.0554 41.0927 75.0724 41.091C75.0911 41.0876 75.1601 41.0706 75.2792 41.04C75.3728 41.006 75.4332 40.9821 75.4604 40.9685C75.4689 40.9634 75.4825 40.9558 75.5013 40.9455C75.5217 40.9285 75.5447 40.9115 75.5702 40.8945C75.6212 40.8588 75.6825 40.7966 75.754 40.7082L75.8893 40.6979L75.8842 40.9864C75.8825 41.0153 75.8816 41.0383 75.8816 41.0553C75.8816 41.0689 75.8825 41.1081 75.8842 41.1727C76.0254 41.0502 76.1539 40.9651 76.2696 40.9175C76.421 40.8545 76.5648 40.823 76.701 40.823C76.8609 40.823 77.0013 40.863 77.1222 40.943C77.243 41.0213 77.3221 41.1123 77.3595 41.2161C77.397 41.3199 77.4157 41.5292 77.4157 41.8441L77.4055 42.6762C77.4055 42.7153 77.4123 42.7477 77.4259 42.7732C77.4429 42.7868 77.4897 42.7996 77.5663 42.8115L77.6914 42.8345C77.7067 42.8566 77.7144 42.8838 77.7144 42.9161C77.7144 42.9366 77.7135 42.9646 77.7118 43.0004L77.2115 42.9646L77.0634 42.9697H76.946L76.6091 42.9953H76.5223C76.5206 42.9731 76.5197 42.9561 76.5197 42.9442C76.5197 42.9136 76.5214 42.8804 76.5249 42.8447C76.5487 42.8396 76.6082 42.8311 76.7035 42.8191C76.7291 42.8157 76.7571 42.8098 76.7878 42.8013C76.8218 42.7877 76.8414 42.774 76.8465 42.7604C76.8601 42.7315 76.8669 42.6762 76.8669 42.5945C76.8669 42.4516 76.8652 42.3418 76.8618 42.2652L76.8643 41.9691C76.866 41.6101 76.8439 41.3863 76.798 41.2978C76.7333 41.1702 76.6363 41.1064 76.507 41.1064C76.4117 41.1064 76.313 41.131 76.2109 41.1804C76.1088 41.228 76.0033 41.3012 75.8944 41.3999L75.8893 41.4433L75.8944 41.6041L75.8918 41.7751L75.902 42.1835L75.8969 42.2474C75.8969 42.5247 75.908 42.6813 75.9301 42.717C75.9522 42.7528 76.0365 42.7919 76.1828 42.8345C76.1879 42.8634 76.1905 42.8847 76.1905 42.8983C76.1905 42.9187 76.1845 42.9502 76.1726 42.9927C76.1198 42.9944 76.0756 42.9953 76.0399 42.9953C76.0041 42.9953 75.948 42.9902 75.8714 42.98L75.5983 42.9749C75.4621 42.9749 75.2656 42.9808 75.0086 42.9927C75.0018 42.9757 74.9984 42.9578 74.9984 42.9391C74.9984 42.9255 74.9993 42.8983 75.001 42.8574ZM77.9364 41.0528C78.1372 40.9677 78.2819 40.8843 78.3704 40.8026C78.4606 40.7209 78.5567 40.5882 78.6588 40.4044H78.8018C78.8171 40.4486 78.8247 40.4954 78.8247 40.5448C78.8247 40.6333 78.8239 40.7022 78.8222 40.7515L78.8145 40.9021C78.8145 40.9107 78.8154 40.9302 78.8171 40.9609L78.8758 40.9634C78.8843 40.9634 78.9643 40.96 79.1157 40.9532C79.1276 40.9532 79.1915 40.9515 79.3072 40.9481C79.3174 40.994 79.3225 41.0349 79.3225 41.0706C79.3225 41.1098 79.3165 41.1557 79.3046 41.2085C79.2485 41.2153 79.2059 41.2187 79.177 41.2187C79.1634 41.2187 79.1362 41.217 79.0953 41.2136H78.9626L78.9166 41.211L78.7941 41.2161L78.789 42.1912C78.7873 42.3801 78.7907 42.4984 78.7992 42.546C78.8094 42.592 78.8298 42.6362 78.8605 42.6788C78.8996 42.6975 78.943 42.7068 78.9907 42.7068C79.0366 42.7068 79.0706 42.7026 79.0928 42.6941C79.1149 42.6856 79.1523 42.6609 79.2051 42.62C79.2153 42.6115 79.2314 42.5996 79.2536 42.5843C79.2944 42.6166 79.3276 42.649 79.3531 42.6813L79.3633 42.7119C79.3038 42.8055 79.2195 42.8796 79.1106 42.934C79.0034 42.9868 78.8885 43.0131 78.766 43.0131C78.6078 43.0131 78.4793 42.9629 78.3806 42.8625C78.2819 42.7621 78.2325 42.6064 78.2325 42.3954L78.2427 41.9462V41.2187L78.1636 41.2161L77.9798 41.2187L77.9466 41.211C77.9364 41.1957 77.9313 41.1812 77.9313 41.1676C77.9313 41.1574 77.933 41.1191 77.9364 41.0528ZM79.6492 42.2729C79.7003 42.2627 79.7377 42.2576 79.7615 42.2576C79.7734 42.2576 79.7913 42.2584 79.8151 42.2601L79.8381 42.2857C79.93 42.4473 79.9904 42.5452 80.0193 42.5792C80.0789 42.649 80.1376 42.7051 80.1955 42.7477C80.2346 42.7749 80.2959 42.803 80.3793 42.8319C80.4354 42.8523 80.495 42.8625 80.5579 42.8625C80.6651 42.8625 80.757 42.8285 80.8336 42.7604C80.9102 42.6907 80.9485 42.6158 80.9485 42.5358C80.9485 42.4814 80.934 42.4354 80.9051 42.398C80.8762 42.3588 80.8183 42.3205 80.7315 42.2831C80.689 42.2644 80.5818 42.2337 80.4099 42.1912C80.2397 42.1487 80.1368 42.1206 80.101 42.107C80.021 42.0763 79.9496 42.0338 79.8866 41.9793C79.8253 41.9249 79.7786 41.8636 79.7462 41.7956C79.702 41.6986 79.6799 41.6152 79.6799 41.5454C79.6799 41.4161 79.6986 41.3106 79.736 41.2289C79.7734 41.1455 79.8262 41.0723 79.8943 41.0094C79.9436 40.9617 80.0176 40.9183 80.1163 40.8792C80.2167 40.84 80.324 40.8205 80.438 40.8205C80.5996 40.8205 80.7417 40.8315 80.8643 40.8537C80.9868 40.8758 81.0906 40.909 81.1757 40.9532C81.1859 40.9923 81.2003 41.0825 81.2191 41.2238C81.2378 41.365 81.2471 41.4484 81.2471 41.4739C81.2471 41.4858 81.2446 41.4986 81.2395 41.5122C81.1952 41.5258 81.1587 41.5326 81.1297 41.5326C81.1127 41.5326 81.088 41.5309 81.0557 41.5275C81.0404 41.5037 81.02 41.468 80.9944 41.4203C80.9128 41.2689 80.8285 41.1625 80.7417 41.1013C80.6566 41.0383 80.5579 41.0068 80.4456 41.0068C80.3282 41.0068 80.2295 41.0408 80.1495 41.1089C80.0917 41.1583 80.0627 41.2255 80.0627 41.3106C80.0627 41.3667 80.0934 41.4237 80.1546 41.4816C80.2142 41.5411 80.318 41.5862 80.466 41.6169C80.689 41.6662 80.8532 41.7156 80.9587 41.7649C81.1119 41.8364 81.2191 41.9206 81.2803 42.0176C81.3433 42.1146 81.3748 42.2269 81.3748 42.3546C81.3748 42.552 81.2999 42.717 81.1501 42.8498C81.0021 42.9808 80.7851 43.0463 80.4992 43.0463C80.4618 43.0463 80.3639 43.0378 80.2057 43.0208C80.1342 43.0123 80.05 42.9953 79.953 42.9697C79.9292 42.9629 79.867 42.9383 79.7666 42.8957C79.7479 42.8855 79.7343 42.8736 79.7258 42.86C79.719 42.8447 79.7079 42.7732 79.6926 42.6456C79.6654 42.438 79.6509 42.3137 79.6492 42.2729Z" fill="white"/>
<path d="M31.1066 26.7918L31.0913 26.3885C31.1525 26.3851 31.2155 26.3834 31.2802 26.3834C31.4503 26.3834 31.629 26.3885 31.8162 26.3987C32.2655 26.4225 32.5292 26.4345 32.6075 26.4345C32.8798 26.4345 33.1453 26.4294 33.4039 26.4191C33.666 26.4055 33.8974 26.397 34.0982 26.3936C34.3024 26.3902 34.4403 26.3868 34.5118 26.3834L34.5067 26.4447L34.5169 26.7459V26.7867C34.3263 26.8139 34.1289 26.8276 33.9247 26.8276C33.7341 26.8276 33.6081 26.865 33.5469 26.9399C33.506 26.9875 33.4856 27.19 33.4856 27.5474C33.4856 27.6563 33.4873 27.7448 33.4907 27.8129L33.4958 27.9967L33.4856 28.4765L33.5162 28.885L33.4958 29.7682L33.5622 31.0496C33.5792 31.4206 33.6609 31.7286 33.8072 31.9736C33.9161 32.154 34.0693 32.2953 34.2667 32.3974C34.5526 32.5403 34.8334 32.6118 35.1091 32.6118C35.4358 32.6118 35.7404 32.5692 36.0229 32.4841C36.1897 32.4365 36.3462 32.3599 36.4926 32.2544C36.6423 32.1455 36.7461 32.0468 36.804 31.9583C36.9265 31.7711 37.0116 31.5958 37.0593 31.4325C37.1239 31.2078 37.1563 30.859 37.1563 30.3859C37.1563 29.5623 37.112 28.6348 37.0235 27.6036L37.0031 27.333C36.9929 27.1322 36.9555 26.9977 36.8908 26.9297C36.7819 26.8242 36.6594 26.7714 36.5232 26.7714L36.0433 26.7816L35.977 26.7663L35.9872 26.3783H36.3905L37.3656 26.4191C37.6923 26.4191 38.0037 26.4038 38.2998 26.3732L38.3866 26.3834C38.407 26.4957 38.4173 26.574 38.4173 26.6182C38.4173 26.6557 38.4104 26.7016 38.3968 26.7561C38.2709 26.7935 38.1382 26.8156 37.9986 26.8225C37.7706 26.8531 37.6447 26.8786 37.6208 26.899C37.5732 26.9399 37.5494 27.0028 37.5494 27.0879C37.5494 27.1492 37.5545 27.2377 37.5647 27.3534C37.5749 27.4385 37.58 27.5865 37.58 27.7976C37.58 27.9167 37.58 28.0103 37.58 28.0783C37.5834 28.1464 37.5868 28.2162 37.5902 28.2877C37.6004 28.5327 37.6089 28.7812 37.6157 29.033L37.6668 30.0694C37.6668 30.7637 37.643 31.2283 37.5953 31.4631C37.5477 31.6979 37.483 31.8834 37.4013 32.0196C37.2754 32.2238 37.0967 32.4127 36.8653 32.5863C36.6338 32.7564 36.3445 32.8926 35.9974 32.9947C35.6502 33.0934 35.2452 33.1427 34.7823 33.1427C34.2548 33.1427 33.8021 33.073 33.4243 32.9334C33.0466 32.7905 32.7607 32.605 32.5667 32.3769C32.3761 32.1455 32.245 31.846 32.1736 31.4784C32.1225 31.2266 32.097 30.8658 32.097 30.3961L32.1021 27.9609C32.1021 27.3857 32.0749 27.0607 32.0204 26.9858C31.9455 26.8803 31.7124 26.8208 31.321 26.8071C31.2359 26.8071 31.1644 26.802 31.1066 26.7918ZM44.4312 29.227C44.2542 29.2202 44.0313 29.2168 43.7624 29.2168C43.2927 29.2168 42.9813 29.2559 42.8282 29.3342C42.6001 29.4499 42.4163 29.6337 42.2768 29.8856L42.1288 30.0847L41.7867 30.0745C41.7901 30.0166 41.8071 29.9452 41.8378 29.8601C41.9126 29.6729 42.0284 29.3087 42.1849 28.7675C42.236 28.5838 42.2853 28.4357 42.333 28.3234H42.4402C42.4844 28.3234 42.5508 28.3251 42.6393 28.3285C42.6563 28.3966 42.6665 28.4714 42.6699 28.5531C42.6699 28.662 42.6869 28.7522 42.721 28.8237L42.7822 28.8492L43.0426 28.8645L45.8964 28.8084C45.9134 28.8901 45.9219 28.953 45.9219 28.9973C45.9219 29.0143 45.9202 29.0466 45.9168 29.0943C45.4403 29.6729 45.1562 30.0251 45.0643 30.1511C44.581 30.8181 44.0534 31.5142 43.4816 32.2391L43.3795 32.3565L43.206 32.5607L43.3846 32.5709C43.6059 32.5709 43.9956 32.5352 44.5537 32.4637C44.7716 32.4365 44.9128 32.4008 44.9775 32.3565C45.0592 32.3021 45.2293 32.0621 45.488 31.6367C45.5356 31.555 45.5748 31.492 45.6054 31.4478L45.9321 31.4529L45.8811 31.8817C45.8675 32.0043 45.8573 32.1013 45.8505 32.1727C45.8437 32.2442 45.83 32.3327 45.8096 32.4382C45.7926 32.5437 45.7773 32.6645 45.7637 32.8007C45.7603 32.8585 45.7552 32.913 45.7484 32.964L43.6144 32.9538L41.9756 32.9589L41.7867 32.9538V32.6628C41.8582 32.5641 41.9177 32.4841 41.9654 32.4229L42.9252 31.2385L43.7267 30.1868C43.9888 29.8465 44.2236 29.5265 44.4312 29.227ZM49.1842 32.6526C49.2386 32.639 49.3901 32.6186 49.6385 32.5914C49.7475 32.5777 49.8155 32.5539 49.8427 32.5199C49.8768 32.4688 49.8938 32.348 49.8938 32.1574V31.7949L49.9091 31.4121V30.9934L49.9142 30.8913L49.9091 30.6361L49.9193 30.5493L49.9397 28.6961V28.5531C49.9397 27.9201 49.9227 27.5287 49.8887 27.3789C49.8683 27.2904 49.8189 27.2207 49.7406 27.1696C49.6658 27.1186 49.4871 27.0709 49.2046 27.0267V26.9195C49.2046 26.8684 49.208 26.8054 49.2148 26.7306L49.6436 26.6387C49.7287 26.6148 49.8104 26.5944 49.8887 26.5774C50.0793 26.5366 50.3192 26.4515 50.6085 26.3221C50.6596 26.2915 50.7072 26.266 50.7515 26.2456L51.0272 26.266L51.0169 29.3189C51.3267 29.0739 51.6092 28.9003 51.8644 28.7982C52.1197 28.6961 52.3851 28.645 52.6608 28.645C52.9229 28.645 53.1492 28.6927 53.3398 28.788C53.5338 28.8799 53.6836 28.9956 53.7891 29.1351C53.8946 29.2713 53.9695 29.438 54.0137 29.6354C54.0443 29.7682 54.0597 30.0234 54.0597 30.4012V30.728L54.0648 31.4478L54.0392 32.4893C54.0529 32.5199 54.0682 32.5403 54.0852 32.5505C54.126 32.5675 54.2264 32.5914 54.3864 32.622C54.4783 32.639 54.5498 32.6543 54.6008 32.6679C54.628 32.719 54.6417 32.7598 54.6417 32.7905L54.6366 32.8313C54.6297 32.8687 54.6263 32.9249 54.6263 32.9998L54.5089 33.0049C54.4579 33.0049 54.3575 32.9981 54.2077 32.9845C53.9218 32.9572 53.6819 32.9436 53.4879 32.9436C53.3619 32.9436 53.1935 32.9504 52.9825 32.964C52.8327 32.9708 52.6421 32.9743 52.4107 32.9743C52.3732 32.9743 52.3392 32.9691 52.3086 32.9589V32.8364L52.2984 32.77C52.2984 32.7428 52.3069 32.7054 52.3239 32.6577C52.4022 32.6203 52.4924 32.5965 52.5945 32.5863C52.7 32.5726 52.7987 32.559 52.8906 32.5454C52.9042 32.4807 52.9127 32.4399 52.9161 32.4229L52.9416 31.6775V30.4267C52.9416 30.0558 52.9212 29.8056 52.8804 29.6763C52.8395 29.5435 52.7544 29.4363 52.6251 29.3546C52.4958 29.2696 52.3392 29.227 52.1554 29.227C51.941 29.227 51.7317 29.2781 51.5275 29.3802C51.3267 29.4789 51.1548 29.5963 51.0118 29.7324V30.6258C51.0118 31.1159 51.0067 31.4835 50.9965 31.7286C50.9897 31.8749 50.9863 31.9668 50.9863 32.0043C50.9863 32.2391 51.0016 32.4008 51.0323 32.4893C51.0459 32.5301 51.0833 32.5675 51.1446 32.6016C51.2705 32.6118 51.3743 32.6186 51.456 32.622C51.5411 32.622 51.6092 32.6288 51.6602 32.6424C51.667 32.7275 51.6704 32.7871 51.6704 32.8211C51.6704 32.8687 51.6636 32.9266 51.65 32.9947L51.0833 32.9691C50.8689 32.9521 50.6766 32.9436 50.5064 32.9436L49.7917 32.9794L49.2914 32.9743C49.2573 32.9266 49.2216 32.8415 49.1842 32.719V32.6526ZM58.8586 33.6584C58.3991 33.5426 58.0928 33.4065 57.9396 33.2499C57.7865 33.0968 57.7099 32.9249 57.7099 32.7343C57.7099 32.5811 57.7507 32.4637 57.8324 32.382C57.9141 32.3004 58.2868 32.0706 58.9505 31.6928C58.6135 31.492 58.3821 31.298 58.2562 31.1108C58.0928 30.8658 58.0111 30.6241 58.0111 30.3859C58.0111 30.1715 58.0554 29.9434 58.1438 29.7018C58.3344 29.3546 58.5948 29.096 58.9249 28.9258C59.2585 28.7522 59.6873 28.6654 60.2115 28.6654C60.4225 28.6654 60.6046 28.6791 60.7577 28.7063C60.8292 28.7199 60.9483 28.7573 61.1151 28.8186L61.3091 28.8901C61.4827 28.999 61.6341 29.1113 61.7634 29.227C62.0561 29.1692 62.2927 29.1096 62.4731 29.0483C62.599 29.0109 62.7079 28.9922 62.7998 28.9922C62.8679 28.9922 62.9223 29.0211 62.9632 29.079C63.004 29.1368 63.0244 29.273 63.0244 29.4874C63.0244 29.6746 62.9989 29.8056 62.9479 29.8805C62.8968 29.952 62.8441 29.9877 62.7896 29.9877C62.7692 29.9877 62.7096 29.9639 62.6109 29.9162C62.3795 29.8107 62.194 29.7546 62.0544 29.7477C62.1361 29.9826 62.177 30.2055 62.177 30.4165C62.177 30.665 62.1038 30.9032 61.9574 31.1313C61.8145 31.3559 61.6171 31.5346 61.3652 31.6673C61.0147 31.8545 60.6641 31.9481 60.3136 31.9481C60.0889 31.9481 59.9358 31.943 59.8541 31.9328C59.735 31.9192 59.5682 31.8885 59.3538 31.8409C59.0645 32.0009 58.862 32.137 58.7463 32.2493C58.6884 32.3038 58.6595 32.3684 58.6595 32.4433C58.6595 32.5114 58.6884 32.5726 58.7463 32.6271C58.8075 32.6816 58.9079 32.719 59.0475 32.7394C59.0747 32.7428 59.1121 32.7496 59.1598 32.7598C59.3402 32.7734 59.5801 32.7803 59.8796 32.7803C59.9171 32.7803 60.0379 32.7751 60.2421 32.7649C60.2999 32.7615 60.3493 32.7598 60.3901 32.7598C61.2036 32.7598 61.7737 32.8892 62.1004 33.1478C62.4237 33.4065 62.5854 33.723 62.5854 34.0974C62.5854 34.2982 62.5275 34.4939 62.4118 34.6845C62.2995 34.8785 62.1463 35.0351 61.9523 35.1542C61.7583 35.2767 61.4776 35.3856 61.11 35.4809C60.7458 35.5762 60.3544 35.6239 59.9358 35.6239C59.4831 35.6239 59.0764 35.5796 58.7156 35.4911C58.3583 35.4026 58.0775 35.258 57.8733 35.0572C57.7167 34.9074 57.6384 34.7475 57.6384 34.5773C57.6384 34.4105 57.7031 34.2608 57.8324 34.128C57.9652 33.9987 58.3072 33.8421 58.8586 33.6584ZM60.1349 31.6061C60.3629 31.6061 60.5569 31.5091 60.7169 31.3151C60.8802 31.1177 60.9619 30.813 60.9619 30.4012C60.9619 29.8567 60.8888 29.4908 60.7424 29.3036C60.5995 29.1164 60.3969 29.0228 60.1349 29.0228C60.1008 29.0228 60.0107 29.0313 59.8643 29.0483C59.7009 29.079 59.5512 29.1947 59.415 29.3955C59.2823 29.5963 59.2159 29.8652 59.2159 30.2021C59.2159 30.294 59.2279 30.4761 59.2517 30.7484C59.2619 30.8641 59.2874 30.9645 59.3283 31.0496C59.3861 31.1823 59.4491 31.2861 59.5171 31.361C59.5852 31.4325 59.6754 31.492 59.7877 31.5397C59.9034 31.5839 60.0192 31.6061 60.1349 31.6061ZM60.4259 35.2767C60.9296 35.2188 61.321 35.0827 61.6001 34.8683C61.7771 34.7287 61.8656 34.5909 61.8656 34.4548C61.8656 34.3799 61.8468 34.3067 61.8094 34.2352C61.772 34.1638 61.7039 34.0923 61.6052 34.0208C61.5099 33.9528 61.401 33.9051 61.2784 33.8779C61.1049 33.8438 60.8751 33.8268 60.5892 33.8268L59.9613 33.8166C59.4099 33.8166 59.039 33.8847 58.8484 34.0208C58.6612 34.157 58.5676 34.3373 58.5676 34.562C58.5676 34.6811 58.6203 34.7985 58.7258 34.9142C58.8313 35.0334 59.0083 35.127 59.2568 35.195C59.5052 35.2631 59.7724 35.2971 60.0583 35.2971C60.14 35.2971 60.2625 35.2903 60.4259 35.2767ZM70.085 29.2525C70.3028 29.4636 70.4645 29.7069 70.57 29.9826C70.6789 30.2549 70.7333 30.5118 70.7333 30.7535C70.7333 31.2095 70.6636 31.5771 70.524 31.8562C70.313 32.2782 70.0288 32.5897 69.6714 32.7905C69.3141 32.9913 68.8988 33.0917 68.4258 33.0917C67.8948 33.0917 67.4439 32.9725 67.0729 32.7343C66.7053 32.4961 66.4415 32.2255 66.2816 31.9226C66.125 31.6197 66.0467 31.2436 66.0467 30.7943C66.0467 30.5663 66.0842 30.3383 66.159 30.1102C66.2339 29.8788 66.336 29.678 66.4654 29.5078C66.5981 29.3376 66.7427 29.1947 66.8993 29.079C67.1273 28.9156 67.3554 28.7999 67.5834 28.7318C67.8148 28.6603 68.0939 28.6246 68.4207 28.6246C69.132 28.6246 69.6868 28.8339 70.085 29.2525ZM67.2924 31.019C67.323 31.441 67.3452 31.6843 67.3588 31.749C67.403 31.977 67.4728 32.1727 67.5681 32.3361C67.6328 32.4416 67.74 32.5352 67.8897 32.6169C68.0395 32.6986 68.2182 32.7394 68.4258 32.7394C68.6742 32.7394 68.8835 32.6611 69.0537 32.5046C69.2239 32.3446 69.3464 32.0962 69.4213 31.7592C69.4689 31.538 69.4928 31.1755 69.4928 30.6718C69.4928 30.0524 69.3907 29.615 69.1864 29.3598C68.9822 29.1011 68.7134 28.9718 68.3798 28.9718C68.1177 28.9718 67.8999 29.0449 67.7263 29.1913C67.5562 29.3376 67.4371 29.5538 67.369 29.8396C67.3247 30.0234 67.2992 30.4165 67.2924 31.019ZM73.9292 32.7241C73.9734 32.6867 74.0313 32.6594 74.1028 32.6424C74.2764 32.605 74.4414 32.5369 74.598 32.4382C74.6286 32.3565 74.6439 32.0808 74.6439 31.6112C74.6439 30.7501 74.6252 30.1681 74.5878 29.8652C74.581 29.8107 74.5537 29.7631 74.5061 29.7222C74.421 29.678 74.3053 29.6388 74.1589 29.6048C74.0909 29.5878 74.05 29.5503 74.0364 29.4925L74.0211 29.3036C74.273 29.2696 74.501 29.1845 74.7052 29.0483C74.9094 28.9088 75.0626 28.7675 75.1647 28.6246C75.2191 28.5463 75.2668 28.4868 75.3076 28.4459L75.665 28.4306C75.682 28.5089 75.6905 28.5735 75.6905 28.6246C75.6905 28.662 75.6888 28.708 75.6854 28.7624C75.682 28.8816 75.6803 28.9803 75.6803 29.0585C75.6803 29.096 75.682 29.2372 75.6854 29.4823C75.8249 29.244 75.927 29.0841 75.9917 29.0024C76.0223 28.9649 76.1125 28.8816 76.2623 28.7522C76.378 28.6671 76.509 28.6246 76.6554 28.6246C76.8358 28.6246 76.9923 28.6859 77.1251 28.8084C77.2578 28.9309 77.3242 29.0722 77.3242 29.2321C77.3242 29.3921 77.2731 29.5367 77.171 29.6661C77.0723 29.792 76.9396 29.855 76.7728 29.855C76.6265 29.855 76.4733 29.7937 76.3133 29.6712C76.218 29.5963 76.1415 29.5589 76.0836 29.5589L76.0479 29.564C75.9764 29.5878 75.9117 29.6525 75.8539 29.758C75.7586 29.9281 75.7109 30.1051 75.7109 30.2889L75.7211 30.4267C75.7347 30.6786 75.745 31.2691 75.7518 32.1983C75.762 32.2833 75.7943 32.3684 75.8488 32.4535C75.91 32.5012 75.9713 32.5352 76.0326 32.5556C76.0972 32.576 76.2078 32.5931 76.3644 32.6067C76.521 32.6203 76.6162 32.6424 76.6503 32.673C76.6843 32.7003 76.7013 32.7462 76.7013 32.8109C76.7013 32.8483 76.6911 32.8977 76.6707 32.9589H76.1908L75.2157 32.9079C74.9707 32.9079 74.7477 32.9181 74.5469 32.9385H74.4601C74.4363 32.9385 74.2593 32.947 73.9292 32.964C73.919 32.9096 73.9139 32.8687 73.9139 32.8415C73.9139 32.8143 73.919 32.7751 73.9292 32.7241ZM84.3592 29.2525C84.577 29.4636 84.7387 29.7069 84.8442 29.9826C84.9531 30.2549 85.0075 30.5118 85.0075 30.7535C85.0075 31.2095 84.9378 31.5771 84.7982 31.8562C84.5872 32.2782 84.303 32.5897 83.9456 32.7905C83.5883 32.9913 83.1731 33.0917 82.7 33.0917C82.169 33.0917 81.7181 32.9725 81.3471 32.7343C80.9795 32.4961 80.7157 32.2255 80.5558 31.9226C80.3992 31.6197 80.3209 31.2436 80.3209 30.7943C80.3209 30.5663 80.3584 30.3383 80.4333 30.1102C80.5081 29.8788 80.6102 29.678 80.7396 29.5078C80.8723 29.3376 81.0169 29.1947 81.1735 29.079C81.4015 28.9156 81.6296 28.7999 81.8576 28.7318C82.089 28.6603 82.3681 28.6246 82.6949 28.6246C83.4062 28.6246 83.961 28.8339 84.3592 29.2525ZM81.5666 31.019C81.5972 31.441 81.6194 31.6843 81.633 31.749C81.6772 31.977 81.747 32.1727 81.8423 32.3361C81.907 32.4416 82.0142 32.5352 82.1639 32.6169C82.3137 32.6986 82.4924 32.7394 82.7 32.7394C82.9484 32.7394 83.1577 32.6611 83.3279 32.5046C83.4981 32.3446 83.6206 32.0962 83.6955 31.7592C83.7431 31.538 83.767 31.1755 83.767 30.6718C83.767 30.0524 83.6649 29.615 83.4607 29.3598C83.2564 29.1011 82.9876 28.9718 82.654 28.9718C82.392 28.9718 82.1741 29.0449 82.0006 29.1913C81.8304 29.3376 81.7113 29.5538 81.6432 29.8396C81.5989 30.0234 81.5734 30.4165 81.5666 31.019ZM89.3521 29.0585C89.5188 28.9428 89.6788 28.8594 89.832 28.8084C89.9885 28.7573 90.2081 28.7182 90.4905 28.691H90.7764C91.1474 28.691 91.5031 28.8186 91.8434 29.0739L91.8536 28.9513L91.8485 28.6093L91.869 28.063C91.869 27.4878 91.8247 27.1237 91.7362 26.9705C91.6852 26.8786 91.595 26.8293 91.4656 26.8225C91.3397 26.8156 91.2376 26.7935 91.1593 26.7561V26.511C91.224 26.4906 91.3074 26.4804 91.4095 26.4804C91.5116 26.477 91.7107 26.4413 92.0068 26.3732L92.1804 26.3375L92.6858 26.22C92.7879 26.1962 92.8509 26.1843 92.8747 26.1843C92.8917 26.1843 92.9189 26.1877 92.9564 26.1945C92.9768 26.266 92.987 26.3187 92.987 26.3528L92.9819 26.4294V26.5212C92.9819 26.6165 92.987 26.8701 92.9972 27.2819V27.5576L93.0023 27.7057L92.9972 27.9609L93.0125 28.4919L93.0023 28.8033C92.9955 28.9394 92.9921 29.1538 92.9921 29.4465C92.9921 29.4942 92.9938 29.5367 92.9972 29.5742V29.7631C92.9938 29.8175 92.9921 29.8584 92.9921 29.8856C92.9921 29.9366 92.9972 30.0098 93.0074 30.1051V30.3859L93.0023 30.4931C92.9955 30.5918 92.9921 30.728 92.9921 30.9015C92.9921 31.0785 92.9955 31.2385 93.0023 31.3814C93.0057 31.4393 93.0074 31.492 93.0074 31.5397V31.9226C93.0074 32.0451 93.0108 32.1915 93.0176 32.3616C93.0789 32.3991 93.2286 32.4263 93.4669 32.4433C93.5418 32.4467 93.6081 32.4552 93.666 32.4688C93.683 32.5199 93.6915 32.5573 93.6915 32.5811C93.6915 32.6118 93.6796 32.6577 93.6558 32.719C93.5162 32.753 93.3699 32.7786 93.2167 32.7956C92.7505 32.8534 92.4186 32.9351 92.2212 33.0406C92.1259 33.0951 92.0595 33.1223 92.0221 33.1223C91.9847 33.1223 91.9421 33.1189 91.8945 33.1121C91.8979 33.0508 91.8996 33.0117 91.8996 32.9947C91.8996 32.7632 91.8945 32.6152 91.8843 32.5505C91.8332 32.5777 91.7703 32.6135 91.6954 32.6577C91.4673 32.7939 91.2597 32.8892 91.0725 32.9436C90.8853 32.9947 90.6709 33.0202 90.4293 33.0202C90.0004 33.0202 89.6584 32.9385 89.4031 32.7751C89.0253 32.5369 88.7633 32.251 88.6169 31.9175C88.474 31.5839 88.4025 31.2181 88.4025 30.8198C88.4025 30.1323 88.719 29.5452 89.3521 29.0585ZM90.9245 32.4382C90.996 32.445 91.0572 32.4484 91.1083 32.4484C91.2206 32.4484 91.3397 32.4246 91.4656 32.3769C91.595 32.3293 91.7311 32.2595 91.8741 32.1676C91.8775 32.0553 91.8792 31.9855 91.8792 31.9583C91.8792 30.8794 91.8638 30.2293 91.8332 30.0081C91.7924 29.712 91.6801 29.484 91.4963 29.324C91.3125 29.1641 91.0896 29.0841 90.8275 29.0841C90.6777 29.0841 90.5348 29.1113 90.3986 29.1658C90.2659 29.2202 90.157 29.2985 90.0719 29.4006C89.946 29.5503 89.8507 29.7205 89.786 29.9111C89.6975 30.1766 89.6533 30.425 89.6533 30.6565C89.6533 31.2112 89.7707 31.6367 90.0055 31.9328C90.2404 32.2255 90.5467 32.394 90.9245 32.4382Z" fill="#333333"/>
<path d="M95.31 19.5195H94V22.1295H95.31V19.5195Z" fill="#002B5F"/>
<path d="M92.7 19.5195H91.39V22.5695H92.7V19.5195Z" fill="#002B5F"/>
<path d="M97.92 19.5195H96.61V22.5695H97.92V19.5195Z" fill="#002B5F"/>
<path d="M104.68 19.5195H103.37V22.1295H104.68V19.5195Z" fill="#002B5F"/>
<path d="M101.63 19.5195H100.32V22.1295H101.63V19.5195Z" fill="#002B5F"/>
<path d="M85.73 19.5195H84.42V22.1295H85.73V19.5195Z" fill="#002B5F"/>
<path d="M88.9901 19.5195H87.6801V22.1295H88.9901V19.5195Z" fill="#002B5F"/>
<path d="M92.91 16.4697H91.39V18.2097H92.91V16.4697Z" fill="#002B5F"/>
<path d="M95.3 16.4697H93.78V18.2097H95.3V16.4697Z" fill="#002B5F"/>
<path d="M97.92 16.4697H96.4V18.2097H97.92V16.4697Z" fill="#002B5F"/>
<path d="M19.28 20.5996H17.76V22.5596H19.28V20.5996Z" fill="#002B5F"/>
<path d="M19.28 18.8604H17.76V20.3804H19.28V18.8604Z" fill="#002B5F"/>
<path d="M22.5501 21.9101H20.8101V19.3001C20.9601 19.2201 21.2701 19.0801 21.6801 19.0801C21.8401 19.0801 22.1801 19.1001 22.5501 19.3001C22.5501 20.1701 22.5501 21.0401 22.5501 21.9101Z" fill="#002B5F"/>
<path d="M25.6 20.6001H23.86V19.3001C24.01 19.2201 24.32 19.0801 24.73 19.0801C24.89 19.0801 25.23 19.1001 25.6 19.3001C25.6 20.1701 25.6 21.0401 25.6 20.6001Z" fill="#002B5F"/>
<path d="M29.09 22.5598H26.48V17.9898C26.53 17.9198 26.99 17.3398 27.79 17.3398C27.87 17.3398 28.62 17.3498 29.1 17.9898C29.09 19.5198 29.09 21.0398 29.09 22.5598Z" fill="#002B5F"/>
<path d="M31.7 21.9101H29.96V19.3001C30.11 19.2201 30.42 19.0801 30.83 19.0801C30.99 19.0801 31.33 19.1001 31.7 19.3001C31.7 20.1701 31.7 21.0401 31.7 21.9101Z" fill="#002B5F"/>
<path d="M34.75 21.9101H33.01V19.3001C33.16 19.2201 33.47 19.0801 33.88 19.0801C34.04 19.0801 34.38 19.1001 34.75 19.3001C34.75 20.1701 34.75 21.0401 34.75 21.9101Z" fill="#002B5F"/>
<path d="M37.5801 22.5603H36.0601V20.6003C36.1701 20.5303 36.5001 20.3503 36.9301 20.3803C37.2401 20.4003 37.4701 20.5303 37.5801 20.6003C37.5801 21.2603 37.5801 21.9103 37.5801 22.5603Z" fill="#002B5F"/>
<path d="M37.5801 19.5199H36.0601V15.1599C36.1701 15.0899 36.5001 14.9099 36.9301 14.9399C37.2401 14.9599 37.4701 15.0899 37.5801 15.1599C37.5801 16.6099 37.5801 18.0599 37.5801 19.5199Z" fill="#002B5F"/>
<path d="M36.82 14.0702C37.1183 14.0702 37.36 13.8285 37.36 13.5302C37.36 13.232 37.1183 12.9902 36.82 12.9902C36.5218 12.9902 36.28 13.232 36.28 13.5302C36.28 13.8285 36.5218 14.0702 36.82 14.0702Z" fill="#002B5F"/>
<path d="M19.29 18.6399H17.77V17.9899C17.88 17.9199 18.11 17.7999 18.42 17.7699C18.86 17.7399 19.18 17.9199 19.29 17.9899C19.29 18.2099 19.29 18.4299 19.29 18.6399Z" fill="#002B5F"/>
<path d="M41.72 21.48C41.72 21.24 41.52 21.04 41.28 21.04C41.04 21.04 40.84 21.24 40.84 21.48C40.84 21.99 40.84 22.5 40.84 23H41.71V21.48H41.72Z" fill="#002B5F"/>
<path d="M44.12 23H43.25V21.48C43.25 21.24 43.45 21.04 43.69 21.04C43.93 21.04 44.13 21.24 44.13 21.48C44.12 21.98 44.12 22.49 44.12 23Z" fill="#002B5F"/>
<path d="M46.73 23.4399H45.21V21.6999C45.27 21.3499 45.54 21.0899 45.86 21.0499C46.25 20.9999 46.64 21.2699 46.73 21.6999C46.73 22.2699 46.73 22.8599 46.73 23.4399Z" fill="#002B5F"/>
<path d="M48.6901 23H47.8201V21.48C47.8201 21.24 48.0201 21.04 48.2601 21.04C48.5001 21.04 48.7001 21.24 48.7001 21.48C48.6901 21.98 48.6901 22.49 48.6901 23Z" fill="#002B5F"/>
<path d="M51.09 23H50.22V21.48C50.22 21.24 50.42 21.04 50.66 21.04C50.9 21.04 51.1 21.24 51.1 21.48C51.09 21.98 51.09 22.49 51.09 23Z" fill="#002B5F"/>
<path d="M40.85 16.2496C40.85 16.0096 41.05 15.8096 41.29 15.8096C41.53 15.8096 41.73 16.0096 41.73 16.2496C41.73 17.1196 41.73 17.9896 41.73 18.8596H40.86V16.2496H40.85Z" fill="#002B5F"/>
<path d="M51.09 16.4703C51.14 16.1003 50.87 15.8203 50.65 15.8203C50.43 15.8203 50.17 16.1003 50.21 16.4703C50.21 17.2703 50.21 18.0703 50.21 18.8703H51.08V16.4703H51.09Z" fill="#002B5F"/>
<path d="M46.3 19.0804C46.21 18.9004 46.02 18.8104 45.86 18.8604C45.71 18.9104 45.65 19.0604 45.64 19.0804C45.64 19.4404 45.64 19.8104 45.64 20.1704H46.29V19.0804H46.3Z" fill="#002B5F"/>
<path d="M45.43 19.3003C45.44 19.0803 45.34 18.9003 45.21 18.8603C45.06 18.8203 44.81 18.9903 44.77 19.3003C44.77 19.5203 44.77 19.7403 44.77 19.9503H45.42V19.3003H45.43Z" fill="#002B5F"/>
<path d="M47.17 19.0804C47.08 18.9004 46.89 18.8104 46.73 18.8604C46.58 18.9104 46.52 19.0604 46.51 19.0804C46.51 19.3704 46.51 19.6604 46.51 19.9504H47.16V19.0804H47.17Z" fill="#002B5F"/>
<path d="M44.5501 17.3399H43.6801V15.8199C43.6801 15.5799 43.8801 15.3799 44.1201 15.3799C44.3601 15.3799 44.5601 15.5799 44.5601 15.8199C44.5501 16.3199 44.5501 16.8299 44.5501 17.3399Z" fill="#002B5F"/>
<path d="M48.26 17.3399H47.39V15.8199C47.39 15.5799 47.59 15.3799 47.83 15.3799C48.07 15.3799 48.27 15.5799 48.27 15.8199C48.26 16.3199 48.26 16.8299 48.26 17.3399Z" fill="#002B5F"/>
<path d="M45.6401 15.5903C45.6101 15.2803 45.3601 15.1103 45.2001 15.1503C45.0701 15.1803 44.9701 15.3703 44.9801 15.5903C44.9801 16.1703 44.9801 16.7503 44.9801 17.3303H45.6301V15.5903H45.6401Z" fill="#002B5F"/>
<path d="M46.7301 15.5903C46.7401 15.3703 46.6401 15.1903 46.5101 15.1503C46.3601 15.1103 46.1101 15.2803 46.0701 15.5903C46.0701 16.1703 46.0701 16.7503 46.0701 17.3303H46.7201V15.5903H46.7301Z" fill="#002B5F"/>
<path d="M46.3 15.3804C46.3 15.1404 46.1 14.9404 45.86 14.9404C45.62 14.9404 45.42 15.1404 45.42 15.3804C45.42 16.0304 45.42 16.6904 45.42 17.3404H46.29V15.3804H46.3Z" fill="#002B5F"/>
<path d="M51.09 11.8902C51.09 11.6502 50.89 11.4502 50.65 11.4502C50.41 11.4502 50.21 11.6502 50.21 11.8902C50.21 12.3302 50.21 12.7602 50.21 13.2002H51.08V11.8902H51.09Z" fill="#002B5F"/>
<path d="M45.21 10.8003C45.18 10.4903 44.93 10.3203 44.77 10.3603C44.64 10.3903 44.54 10.5803 44.55 10.8003C44.55 11.3103 44.55 11.8203 44.55 12.3203H45.2V10.8003H45.21Z" fill="#002B5F"/>
<path d="M46.3 10.8003C46.27 10.4903 46.02 10.3203 45.86 10.3603C45.73 10.3903 45.63 10.5803 45.64 10.8003C45.64 11.3103 45.64 11.8203 45.64 12.3203H46.29V10.8003H46.3Z" fill="#002B5F"/>
<path d="M47.17 10.8003C47.18 10.5803 47.08 10.4003 46.95 10.3603C46.8 10.3203 46.55 10.4903 46.51 10.8003C46.51 11.3103 46.51 11.8203 46.51 12.3203H47.16V10.8003H47.17Z" fill="#002B5F"/>
<path d="M41.72 11.8902C41.72 11.6502 41.52 11.4502 41.28 11.4502C41.04 11.4502 40.84 11.6502 40.84 11.8902C40.84 12.3302 40.84 12.7602 40.84 13.2002H41.71V11.8902H41.72Z" fill="#002B5F"/>
<path d="M70.2601 15.5997C70.5031 15.5997 70.7001 15.4027 70.7001 15.1597C70.7001 14.9167 70.5031 14.7197 70.2601 14.7197C70.0171 14.7197 69.8201 14.9167 69.8201 15.1597C69.8201 15.4027 70.0171 15.5997 70.2601 15.5997Z" fill="#002B5F"/>
<path d="M75.27 15.38C75.513 15.38 75.71 15.183 75.71 14.94C75.71 14.697 75.513 14.5 75.27 14.5C75.0269 14.5 74.83 14.697 74.83 14.94C74.83 15.183 75.0269 15.38 75.27 15.38Z" fill="#002B5F"/>
<path d="M80.28 15.5997C80.523 15.5997 80.72 15.4027 80.72 15.1597C80.72 14.9167 80.523 14.7197 80.28 14.7197C80.037 14.7197 79.84 14.9167 79.84 15.1597C79.84 15.4027 80.037 15.5997 80.28 15.5997Z" fill="#002B5F"/>
<path d="M70.91 18.2104C70.72 17.9004 70.38 17.7304 70.04 17.7704C69.62 17.8204 69.41 18.1604 69.39 18.2104C69.39 19.1504 69.39 20.1004 69.39 21.0404H70.91V18.2104V18.2104Z" fill="#002B5F"/>
<path d="M70.69 17.5498C70.6 17.2398 70.31 17.0598 70.04 17.1098C69.83 17.1498 69.66 17.3198 69.6 17.5498C69.6 17.9898 69.6 18.4198 69.6 18.8598H70.69V17.5498Z" fill="#002B5F"/>
<path d="M80.93 18.2104C80.74 17.9004 80.4 17.7304 80.06 17.7704C79.64 17.8204 79.43 18.1604 79.41 18.2104C79.41 19.1504 79.41 20.1004 79.41 21.0404H80.93V18.2104V18.2104Z" fill="#002B5F"/>
<path d="M80.71 17.5498C80.62 17.2398 80.33 17.0598 80.06 17.1098C79.85 17.1498 79.68 17.3198 79.62 17.5498C79.62 17.9898 79.62 18.4198 79.62 18.8598H80.71V17.5498Z" fill="#002B5F"/>
<path d="M74.18 18.4298H73.74V17.5598C73.74 17.4398 73.84 17.3398 73.96 17.3398C74.08 17.3398 74.18 17.4398 74.18 17.5598C74.18 17.8498 74.18 18.1398 74.18 18.4298Z" fill="#002B5F"/>
<path d="M74.83 18.4298H74.4V17.5598C74.4 17.4398 74.5 17.3398 74.62 17.3398C74.74 17.3398 74.84 17.4398 74.84 17.5598C74.83 17.8498 74.83 18.1398 74.83 18.4298Z" fill="#002B5F"/>
<path d="M75.49 18.4298H75.05V17.5598C75.05 17.4398 75.15 17.3398 75.27 17.3398C75.39 17.3398 75.49 17.4398 75.49 17.5598C75.49 17.8498 75.49 18.1398 75.49 18.4298Z" fill="#002B5F"/>
<path d="M76.14 18.4298H75.7V17.5598C75.7 17.4398 75.8 17.3398 75.92 17.3398C76.04 17.3398 76.14 17.4398 76.14 17.5598C76.14 17.8498 76.14 18.1398 76.14 18.4298Z" fill="#002B5F"/>
<path d="M76.79 18.4298H76.35V17.5598C76.35 17.4398 76.45 17.3398 76.57 17.3398C76.69 17.3398 76.79 17.4398 76.79 17.5598C76.79 17.8498 76.79 18.1398 76.79 18.4298Z" fill="#002B5F"/>
<path d="M74.61 19.9497C74.62 19.7297 74.52 19.5497 74.39 19.5097C74.24 19.4697 73.99 19.6397 73.95 19.9497C73.95 20.3097 73.95 20.6797 73.95 21.0397H74.6V19.9497H74.61Z" fill="#002B5F"/>
<path d="M75.49 19.9497C75.5 19.7297 75.4 19.5497 75.27 19.5097C75.12 19.4697 74.87 19.6397 74.83 19.9497C74.83 20.3097 74.83 20.6797 74.83 21.0397H75.48V19.9497H75.49Z" fill="#002B5F"/>
<path d="M76.36 19.7298C76.35 19.7098 76.29 19.5598 76.14 19.5098C75.98 19.4598 75.8 19.5498 75.7 19.7298C75.7 20.1698 75.7 20.5998 75.7 21.0398H76.35V19.7298H76.36Z" fill="#002B5F"/>
<path d="M74.29 19.7401C74.4722 19.7401 74.62 19.5923 74.62 19.4101C74.62 19.2278 74.4722 19.0801 74.29 19.0801C74.1077 19.0801 73.96 19.2278 73.96 19.4101C73.96 19.5923 74.1077 19.7401 74.29 19.7401Z" fill="#002B5F"/>
<path d="M75.16 19.7401C75.3422 19.7401 75.49 19.5923 75.49 19.4101C75.49 19.2278 75.3422 19.0801 75.16 19.0801C74.9777 19.0801 74.83 19.2278 74.83 19.4101C74.83 19.5923 74.9777 19.7401 75.16 19.7401Z" fill="#002B5F"/>
<path d="M76.03 19.7401C76.2122 19.7401 76.36 19.5923 76.36 19.4101C76.36 19.2278 76.2122 19.0801 76.03 19.0801C75.8477 19.0801 75.7 19.2278 75.7 19.4101C75.7 19.5923 75.8477 19.7401 76.03 19.7401Z" fill="#002B5F"/>
<path d="M56.1 15.8096C56.01 15.4996 55.72 15.3196 55.45 15.3696C55.24 15.4096 55.07 15.5796 55.01 15.8096C55.01 16.5396 55.01 17.2596 55.01 17.9896H56.1V15.8096V15.8096Z" fill="#002B5F"/>
<path d="M57.4101 15.8096C57.3201 15.4996 57.0301 15.3196 56.7601 15.3696C56.5501 15.4096 56.3801 15.5796 56.3201 15.8096C56.3201 16.5396 56.3201 17.2596 56.3201 17.9896H57.4101V15.8096V15.8096Z" fill="#002B5F"/>
<path d="M61.54 20.3895C61.32 19.8595 60.8 19.5195 60.23 19.5195C59.66 19.5195 59.14 19.8595 58.92 20.3895C58.92 21.1195 58.92 21.8395 58.92 22.5695H61.53V20.3895H61.54Z" fill="#002B5F"/>
<path d="M57.84 21.4796H54.79V21.0396C54.83 20.2496 55.4 19.6096 56.1 19.5196C56.93 19.4096 57.78 20.0796 57.84 21.0396C57.84 21.1896 57.84 21.3296 57.84 21.4796Z" fill="#002B5F"/>
<path d="M65.03 20.3902C65.03 20.0302 64.74 19.7402 64.38 19.7402C64.02 19.7402 63.73 20.0302 63.73 20.3902C63.73 20.7502 63.73 21.1202 63.73 21.4802H65.04V20.3902H65.03Z" fill="#002B5F"/>
<path d="M61.54 17.1201H59.14V15.8101C59.2 15.7101 59.48 15.2801 60.01 15.1601C60.56 15.0301 61.17 15.2901 61.53 15.8101C61.54 16.2501 61.54 16.6801 61.54 17.1201Z" fill="#002B5F"/>
<path d="M60.46 15.3804C60.45 15.1204 60.33 14.9404 60.24 14.9404C60.15 14.9404 60.03 15.1104 60.02 15.3804C60.17 15.3804 60.31 15.3804 60.46 15.3804Z" fill="#002B5F"/>
<path d="M63.9401 16.9004C63.9401 17.1204 63.9401 17.3404 63.9401 17.5504C64.3001 17.7704 64.6701 17.9904 65.0301 18.2004C65.0301 17.9904 65.0301 17.7904 65.0301 17.5804C64.6701 17.3604 64.3001 17.1304 63.9401 16.9004Z" fill="#002B5F"/>
<path d="M60.67 10.15C60.67 9.90996 60.47 9.70996 60.23 9.70996C59.99 9.70996 59.79 9.90996 59.79 10.15C59.79 10.51 59.79 10.88 59.79 11.24H60.66V10.15H60.67Z" fill="#002B5F"/>
<path d="M60.46 12.7603H60.02V12.5403C60.02 12.4203 60.12 12.3203 60.24 12.3203C60.36 12.3203 60.46 12.4203 60.46 12.5403C60.46 12.6203 60.46 12.6903 60.46 12.7603Z" fill="#002B5F"/>
</svg>
